<?xml version="1.0" encoding="UTF-8" standalone="no"?>
<!-- Generator: Adobe Illustrator 21.0.0, SVG Export Plug-In . SVG Version: 6.00 Build 0)  -->
<svg id="Layer_1" style="enable-background:new 0 0 251 72" xmlns="http://www.w3.org/2000/svg" xml:space="preserve" viewBox="0 0 251 72" version="1.1" y="0px" x="0px" xmlns:xlink="http://www.w3.org/1999/xlink">
<style type="text/css">
	.st0{fill:#06C2FC;}
</style>
<title>4_contestArtboard 1</title>
<path class="st0" d="m15.9 42.6c-0.6-0.7-1.3-1.4-2.2-1.8-0.9-0.5-2-0.8-3-0.8-0.9 0-1.8 0.2-2.6 0.6s-1.2 1.2-1.2 2c-0.1 0.9 0.5 1.7 1.3 2 1.2 0.5 2.5 0.8 3.8 1.1 0.9 0.2 1.8 0.5 2.7 0.8s1.7 0.8 2.5 1.3c0.7 0.5 1.4 1.2 1.8 2 0.5 0.9 0.7 2 0.7 3 0 1.3-0.2 2.6-0.8 3.7-0.5 1-1.3 1.8-2.2 2.5-1 0.7-2 1.1-3.2 1.4s-2.5 0.4-3.8 0.4c-1.8 0-3.7-0.3-5.4-1-1.7-0.6-3.2-1.6-4.4-2.9l3.9-3.7c0.7 0.9 1.6 1.6 2.6 2.1 1.1 0.6 2.3 0.9 3.5 0.8 0.4 0 0.9-0.1 1.3-0.1 0.4-0.1 0.9-0.3 1.2-0.5 0.4-0.2 0.7-0.5 0.9-0.9s0.4-0.9 0.4-1.3c0-0.9-0.5-1.8-1.4-2.1-1.3-0.6-2.7-1-4.1-1.3-0.9-0.2-1.8-0.5-2.6-0.8s-1.6-0.7-2.3-1.2-1.2-1.1-1.6-1.9c-0.4-0.9-0.6-1.9-0.6-2.8 0-1.2 0.3-2.4 0.8-3.4 0.5-0.9 1.3-1.8 2.2-2.4s1.9-1.1 3-1.4 2.3-0.5 3.5-0.5c1.7 0 3.4 0.3 5 0.9 1.5 0.5 2.9 1.5 3.9 2.7l-3.6 3.5z"/>
<path class="st0" d="m51.6 35.5c1.4 0 2.7 0.2 4 0.8 1.1 0.5 2 1.2 2.7 2.2 0.7 0.9 1.2 2 1.6 3.1 0.3 1.2 0.5 2.4 0.5 3.6v14.9h-6v-13.2c0-0.7-0.1-1.5-0.2-2.2s-0.3-1.4-0.7-2.1c-0.3-0.6-0.8-1.1-1.4-1.5-0.7-0.4-1.5-0.6-2.3-0.6s-1.7 0.2-2.4 0.6c-0.6 0.4-1.2 0.9-1.6 1.5-0.5 0.6-0.8 1.4-1 2.1-0.2 0.8-0.3 1.5-0.3 2.3v13h-6v-14.3c0.1-1.3-0.3-2.6-1-3.7-0.8-1-2.1-1.6-3.3-1.5-0.8 0-1.6 0.2-2.3 0.6-0.6 0.4-1.2 0.9-1.6 1.5s-0.7 1.3-0.9 2.1-0.3 1.6-0.3 2.4v13.1h-6v-24h5.7v3.8h0.1c0.3-0.6 0.7-1.2 1.1-1.7 0.5-0.5 1-1 1.6-1.4s1.4-0.8 2.1-1c0.9-0.3 1.7-0.4 2.6-0.4 1.6-0.1 3.3 0.3 4.7 1.2 1.2 0.8 2.2 2 2.8 3.3 0.7-1.4 1.8-2.5 3.2-3.3s3-1.2 4.6-1.2z"/>
<path class="st0" d="m80 57h-0.2c-0.7 1.1-1.7 2-2.9 2.6-1.4 0.7-3 1-4.5 1-1 0-2-0.1-3-0.4-1-0.2-2-0.7-2.9-1.2-0.9-0.6-1.6-1.4-2.2-2.3-0.6-1.1-0.9-2.3-0.9-3.5 0-1.5 0.6-3 1.6-4.2 1.1-1.1 2.4-1.9 3.9-2.4 1.7-0.6 3.5-1 5.3-1.1 1.9-0.2 3.8-0.3 5.7-0.3v-0.6c0.1-1.3-0.5-2.6-1.6-3.3s-2.5-1.1-3.8-1.1-2.5 0.3-3.6 0.8-2 1.1-2.9 1.9l-3.1-3.6c1.4-1.3 2.9-2.2 4.7-2.8 1.7-0.6 3.6-0.9 5.4-0.9 1.8-0.1 3.6 0.2 5.2 0.9 1.3 0.5 2.4 1.3 3.2 2.3 0.8 0.9 1.4 2.1 1.7 3.2 0.3 1.2 0.5 2.4 0.5 3.6v14.5h-5.6v-3.1zm-0.1-7.8h-1.4c-1 0-2 0-3 0.1s-2 0.3-2.9 0.5c-0.8 0.2-1.6 0.6-2.2 1.2-0.6 0.5-0.9 1.3-0.9 2.1 0 0.5 0.1 1 0.4 1.4s0.6 0.7 1 0.9 0.9 0.4 1.3 0.5c0.5 0.1 1 0.1 1.5 0.2 1.7 0.1 3.4-0.5 4.7-1.6 1.1-1.2 1.6-2.8 1.5-4.5v-0.8z"/>
<path class="st0" d="m89.8 24h6v36.1h-6v-36.1z"/>
<path class="st0" d="m100.8 24h6v36.1h-6v-36.1z"/>
<path class="st0" d="m117.1 36.2v3.3h0.2c0.3-0.5 0.7-1 1.2-1.4 0.5-0.5 1.1-0.9 1.8-1.3s1.5-0.7 2.4-0.9c1-0.3 2-0.4 3-0.4 3.2 0 6.2 1.3 8.3 3.6 1 1.2 1.9 2.5 2.4 4 0.6 1.6 0.9 3.2 0.8 4.9 0 1.7-0.3 3.4-0.8 4.9s-1.3 2.8-2.3 4-2.3 2.1-3.7 2.7c-1.5 0.7-3.2 1-4.9 1-1.6 0-3.2-0.3-4.6-1-1.3-0.6-2.4-1.6-3.2-2.8h-0.1v15.2h-6v-35.8h5.5zm13.9 11.9c0-0.9-0.1-1.9-0.4-2.8s-0.7-1.7-1.3-2.5c-0.6-0.7-1.3-1.3-2.1-1.8-0.9-0.5-2-0.7-3-0.7s-2 0.2-2.9 0.7c-0.9 0.4-1.6 1-2.2 1.8-0.6 0.7-1.1 1.6-1.4 2.5s-0.5 1.8-0.5 2.8c0 0.9 0.2 1.9 0.5 2.8s0.8 1.7 1.4 2.5c0.6 0.7 1.4 1.3 2.2 1.8 1.9 0.9 4.1 0.9 6 0 0.8-0.4 1.6-1 2.1-1.8 0.6-0.7 1-1.6 1.3-2.5 0.2-0.9 0.3-1.9 0.3-2.8z"/>
<path class="st0" d="m140.1 24h6v36.1h-6v-36.1z"/>
<path class="st0" d="m165.6 57h-0.1c-0.7 1.1-1.7 2-2.9 2.6-1.4 0.7-3 1-4.5 1-1 0-2-0.1-3-0.4-1-0.2-2-0.7-2.9-1.2-0.9-0.6-1.6-1.3-2.2-2.2-0.6-1.1-0.9-2.3-0.9-3.5-0.1-1.6 0.5-3.1 1.5-4.3 1.1-1.1 2.4-1.9 3.9-2.4 1.7-0.6 3.5-1 5.3-1.1 1.9-0.2 3.8-0.3 5.7-0.3v-0.6c0.1-1.3-0.5-2.6-1.6-3.3s-2.5-1.1-3.9-1.1c-1.3 0-2.5 0.3-3.6 0.8s-2 1.1-2.9 1.9l-3.1-3.6c1.4-1.3 2.9-2.2 4.7-2.8 1.7-0.6 3.6-0.9 5.4-0.9 1.8-0.1 3.6 0.2 5.2 0.9 1.2 0.5 2.3 1.3 3.2 2.3 0.8 0.9 1.4 2 1.7 3.2s0.5 2.4 0.5 3.6v14.5h-5.6l0.1-3.1zm-0.1-7.8h-1.3c-1 0-2 0-3 0.1s-2 0.3-2.9 0.5c-0.8 0.3-1.6 0.7-2.2 1.2s-0.9 1.3-0.9 2.1c0 0.5 0.1 1 0.4 1.4s0.6 0.7 1 0.9 0.9 0.4 1.3 0.5c0.5 0.1 1 0.1 1.5 0.2 1.7 0.1 3.4-0.5 4.7-1.6 1.1-1.2 1.7-2.9 1.5-4.5l-0.1-0.8z"/>
<path class="st0" d="m175.3 36.2h5.7v3.8h0.1c0.6-1.3 1.6-2.4 2.8-3.1 1.4-0.9 3-1.4 4.6-1.4 1.4 0 2.7 0.2 4 0.8 1.1 0.5 2 1.2 2.7 2.2 0.7 0.9 1.2 2 1.6 3.1 0.3 1.2 0.5 2.4 0.5 3.6v14.9h-6v-13.2c0-0.7-0.1-1.5-0.1-2.2-0.1-0.7-0.3-1.4-0.6-2.1-0.3-0.6-0.8-1.1-1.4-1.5-0.7-0.4-1.5-0.6-2.3-0.6-0.9 0-1.7 0.2-2.5 0.6-0.7 0.4-1.3 0.9-1.7 1.5-0.5 0.6-0.8 1.3-1 2.1s-0.3 1.6-0.4 2.4v13.1h-6v-24z"/>
<path class="st0" d="m224.4 48.5v0.8 0.8h-18.2c0.1 0.8 0.3 1.6 0.7 2.4 0.4 0.7 0.9 1.3 1.5 1.8s1.4 0.9 2.1 1.2c0.8 0.3 1.6 0.5 2.5 0.5 1.3 0 2.6-0.2 3.8-0.8 1-0.5 1.9-1.3 2.5-2.3l4 3.2c-2.4 3.2-5.8 4.8-10.2 4.8-1.8 0-3.5-0.3-5.2-0.9-1.5-0.5-2.8-1.4-4-2.5s-2.1-2.4-2.7-3.9c-0.7-1.7-1-3.4-1-5.2s0.3-3.6 1-5.2c1.2-3 3.6-5.4 6.7-6.6 1.6-0.6 3.3-0.9 5-0.9 1.6 0 3.1 0.3 4.6 0.8 1.4 0.5 2.6 1.4 3.6 2.4 1.1 1.2 1.9 2.5 2.4 4 0.7 1.7 1 3.6 0.9 5.6zm-6-2.7c0-0.7-0.1-1.5-0.3-2.2-0.4-1.4-1.4-2.5-2.8-3.1-0.8-0.3-1.6-0.5-2.5-0.5-1.7 0-3.3 0.5-4.5 1.6-1.2 1-2 2.5-2.1 4.2h12.2z"/>
<path class="st0" d="m227.5 29.3h5.9v6.9h6v4.8h-6v11.1c0 0.9 0.2 1.8 0.6 2.6 0.4 0.7 1.2 1 2.6 1 0.4 0 0.9 0 1.3-0.1s0.8-0.2 1.2-0.4l0.2 4.7c-0.6 0.2-1.2 0.4-1.9 0.5s-1.4 0.2-2.1 0.2c-1.3 0-2.6-0.2-3.9-0.7-0.9-0.4-1.7-1-2.4-1.8-0.6-0.8-1-1.7-1.2-2.7-0.2-1.1-0.3-2.2-0.3-3.2v-22.9z"/>
<path class="st0" d="m242.4 56.6c0-1 0.4-2 1.2-2.7 0.7-0.7 1.8-1.2 2.8-1.1 1 0 2 0.4 2.8 1.1s1.2 1.7 1.2 2.7-0.4 2-1.2 2.7c-0.7 0.7-1.8 1.2-2.8 1.1-0.5 0-1-0.1-1.5-0.3s-0.9-0.5-1.3-0.8-0.7-0.7-0.9-1.2-0.3-1-0.3-1.5z"/>
</svg>
