<?xml version="1.0" encoding="UTF-8" standalone="no"?>
<!-- Generator: Adobe Illustrator 15.0.0, SVG Export Plug-In  -->
<!DOCTYPE svg  PUBLIC '-//W3C//DTD SVG 1.1//EN'  'http://www.w3.org/Graphics/SVG/1.1/DTD/svg11.dtd' [
	<!ENTITY ns_flows "http://ns.adobe.com/Flows/1.0/">
]>
<svg xmlns="http://www.w3.org/2000/svg" xml:space="preserve" height="280px" width="640px" version="1.1" y="0px" x="0px" overflow="visible" xmlns:xlink="http://www.w3.org/1999/xlink" viewBox="-0.097 -0.498 640 280" enable-background="new -0.097 -0.498 640 280">
<path d="m639.59 278.94h-639.59v-278.94h639.59v278.94zm-630.62-8.96h621.64v-261.01h-621.64v261.01z"/>
<path d="m91.162 183.85h-1.932c-12.606 0-29.022-7.152-34.619-17.584-1.502-2.363 2.989-3.988 4.299-1.641 4.906 9 19.423 15.471 30.32 15.471h1.932c15.999 0 29.65-6.471 29.65-20.32 0-15.646-15.809-19.441-31.383-21.945-12.162-1.982-31.396-6.5-31.396-20.143v-1.639c0-14.73 16.253-21.037 30.96-21.037h1.294c13.027 0 21.992 4.844 28.586 9.705 2.367 1.822-0.622 4.693-2.98 2.9-6.408-4.705-14.511-8.852-25.606-8.852h-1.294c-12.153 0-26.67 4.867-26.67 17.283v1.639c0 9.516 14.707 14.365 27.742 16.721 17.729 3.07 35.235 6.645 35.235 25.367 0 17.05-17.32 24.06-34.138 24.06z"/>
<path d="m91.162 185.68h-1.932c-12.639 0-30.085-7.105-36.174-18.609-0.661-0.975-0.708-2.234-0.125-3.297 0.688-1.242 2.222-2.074 3.887-2.074 1.564 0 2.962 0.779 3.67 2.047 4.657 8.568 18.878 14.543 28.741 14.543h1.932c13.444 0 27.867-4.873 27.867-18.512 0-14.166-14.781-17.738-29.884-20.186-8.124-1.309-32.894-5.361-32.894-21.902v-1.639c0-15.688 16.988-22.846 32.743-22.846h1.294c14.307 0 23.772 5.764 29.647 10.062 1.404 1.049 1.902 2.583 1.446 4.041-0.824 2.432-4.299 3.447-6.577 1.73-4.948-3.6-12.882-8.45-24.516-8.45h-1.294c-9.238 0-24.883 3.259-24.883 15.462v1.639c0 8.912 16.469 13.172 26.296 14.965 16.339 2.809 36.671 6.33 36.671 27.123 0 19.11-19.36 25.9-35.918 25.9zm-34.343-20.41c-0.368 0-0.711 0.201-0.747 0.268 5.451 9.83 21.494 16.537 33.158 16.537h1.932c14.926 0 32.346-5.824 32.346-22.293 0-11.066-6.586-16.43-16.727-19.752 8.509 3.145 15.814 8.756 15.814 19.752 0 13.432-12.351 22.127-31.434 22.127h-1.926c-11.098 0-26.536-6.619-31.917-16.4-0.083-0.18-0.225-0.25-0.494-0.25zm32.174-68.449c-14.511 0-29.173 5.955-29.173 19.23v1.639c0 8.227 7.99 13.9 24.347 17.334-15.492-3.62-23.627-9.557-23.627-17.334v-1.639c0-13.178 14.274-19.059 28.454-19.059h1.294c12.671 0 21.298 5.229 26.661 9.184 0.539 0.377 0.98 0.072 1.025 0.006-5.611-4.047-14.458-9.361-27.686-9.361h-1.301z"/>
<path d="m181.78 183.85h-2.358c-17.699 0-32.023-12.018-32.023-26.943v-34.92c0-14.936 14.325-26.975 32.023-26.975h2.358c17.5 0 32.017 12.039 32.017 26.975v34.92c0 14.93-14.32 26.94-32.02 26.94zm27.53-61.86c0-12.781-12.393-23.221-27.529-23.221h-2.358c-15.145 0-27.532 10.439-27.532 23.221v34.92c0 12.76 12.387 23.189 27.532 23.189h2.358c15.136 0 27.529-10.43 27.529-23.189v-34.92z"/>
<path d="m181.78 185.68h-2.358c-18.647 0-33.807-12.934-33.807-28.771v-34.92c0-15.842 15.16-28.783 33.807-28.783h2.358c18.644 0 33.804 12.941 33.804 28.783v34.92c0.01 15.84-15.15 28.77-33.8 28.77zm-2.36-88.859c-16.656 0-30.243 11.268-30.243 25.168v34.92c0 13.859 13.586 25.162 30.243 25.162h2.358c16.65 0 30.228-11.303 30.228-25.162v-34.92c0-13.9-13.578-25.168-30.228-25.168h-2.36zm2.36 85.079h-2.358c-16.194 0-29.324-11.219-29.324-24.996v-34.92c0-13.777 13.13-24.996 29.324-24.996h2.358c16.146 0 29.318 11.219 29.318 24.996v34.92c0 13.79-13.17 25-29.32 25zm-2.36-81.31c-14.206 0-25.757 9.614-25.757 21.399v34.92c0 11.789 11.551 21.381 25.757 21.381h2.358c14.197 0 25.745-9.592 25.745-21.381v-34.92c0-11.785-11.548-21.399-25.745-21.399h-2.36z"/>
<path d="m298.4 95.015c-1.068 0-2.127 0.729-2.127 1.973v63.827c-1.51 10.791-13.43 19.285-27.587 19.285h-2.353c-15.142 0-27.541-10.43-27.541-23.4v-59.713c0-1.244-1.061-1.973-2.364-1.973-1.055 0-2.122 0.729-2.122 1.973v59.711c0 15.137 14.325 27.154 32.026 27.154h2.353c11.595 0 23.373-5.25 27.587-12.822v23.629c0 12.766-12.395 23.186-27.54 23.186h-2.355c-13.444 0-26.27-6.082-29.665-15.438-0.427-1.07-1.292-1.426-2.16-1.426-1.066 0-2.314 0.715-2.314 1.799 0 0.344 0 0.5 0.196 0.695 4.047 11.51 19.432 18.164 33.943 18.164h2.355c17.698 0 32.015-12.055 32.015-26.98v-97.673c-0.01-1.244-1.3-1.972-2.36-1.972z"/>
<path d="m268.74 223.42h-2.355c-14.2 0-30.856-6.521-35.537-19.045-0.433-0.596-0.433-1.229-0.433-1.6 0-2.162 2.175-3.633 4.145-3.633 1.777 0 3.185 0.986 3.816 2.607 3.048 8.299 14.801 14.312 28.009 14.312h2.355c14.212 0 25.754-9.594 25.754-21.408v-18.428c-5.81 5.662-15.723 9.449-25.801 9.449h-2.353c-18.656 0-33.807-13.021-33.807-28.982v-59.713c0-2.104 1.709-3.781 3.902-3.781 2.423 0 4.147 1.598 4.147 3.781v59.711c0 11.904 11.548 21.592 25.757 21.592h2.353c13.085 0 24.412-7.779 25.822-17.701l-0.021-2.455v-61.153c0-2.104 1.71-3.781 3.913-3.781 2.006 0 4.14 1.441 4.14 3.781v97.672c0 15.88-15.15 28.76-33.8 28.76zm-34.61-20.56v0.006c3.929 11.174 19.189 16.98 32.249 16.98h2.355c16.655 0 30.233-11.303 30.233-25.189v-97.673c-0.035-0.047-0.29-0.166-0.566-0.166-0.014 0-0.343 0.006-0.343 0.166v63.826c-1.653 12.143-14.307 21.092-29.372 21.092h-2.353c-16.176 0-29.327-11.311-29.327-25.207v-59.703c-0.024-0.077-0.213-0.166-0.578-0.166 0 0-0.338 0.006-0.338 0.166v59.711c0 14.012 13.581 25.373 30.243 25.373h2.353c11.05 0 22.244-5.123 26.009-11.928l3.362-6.082v30.598c0 13.803-13.166 25.012-29.324 25.012h-2.355c-14.881 0-27.775-6.844-31.36-16.662-0.12-0.26-0.54-0.31-0.89-0.15z"/>
<path d="m354.32 183.85c-13.865 0-24.766-9.342-24.766-21.012v-103.44c0-1.273 1.066-1.993 2.125-1.993 1.303 0 2.367 0.56 2.367 1.993v103.44c0 9.51 8.965 17.258 20.273 17.258 1.492 0 2.334 0.895 2.334 1.973 0 0.92-0.84 1.78-2.33 1.78z"/>
<path d="m354.32 185.68c-14.914 0-26.551-10.045-26.551-22.84v-103.44c0-2.118 1.703-3.783 3.91-3.783 2.482 0 4.141 1.521 4.141 3.783v103.44c0 8.518 8.314 15.449 18.5 15.449 2.398 0 4.117 1.598 4.117 3.781 0 1.75-1.44 3.61-4.12 3.61zm-22.64-126.48s-0.332 0.012-0.332 0.204v103.44c0 10.787 10.078 19.23 22.973 19.23 0.355 0 0.551-0.119 0.586-0.131-0.035 0-0.379-0.035-0.586-0.035-12.189 0-22.066-8.551-22.066-19.064v-103.44c0.03-0.087-0.13-0.199-0.57-0.199z"/>
<path d="m434.36 141.06h-59.588v15.854c0 12.76 12.387 23.189 27.529 23.189h2.346c11.934 0 22.244-6.672 26.025-15.826 0.23-0.916 1.096-1.277 1.969-1.277 1.254 0 2.51 0.713 2.51 1.793 0 0.191-0.148 0.557-0.148 0.746-4.33 10.604-16.293 18.318-30.355 18.318h-2.36c-17.73 0-32.002-12.018-32.002-26.943v-34.92c0-14.936 14.707-26.975 32.209-26.975h1.734c17.689 0 32.402 11.168 32.402 26.975v17.074c0 1.09-1.01 2-2.28 2zm-2.21-19.07c0-12.781-12.334-23.221-27.506-23.221h-2.139c-15.139 0-27.736 10.439-27.736 23.221v15.283h57.381v-15.28z"/>
<path d="m404.65 185.68h-2.35c-18.635 0-33.803-12.934-33.803-28.771v-34.92c0-15.842 15.281-28.783 34.01-28.783h1.734c19.531 0 34.238 12.375 34.238 28.783v17.074c0 2.111-1.859 3.777-4.121 3.777h-57.785v14.068c0 11.789 11.539 21.381 25.727 21.381h2.346c10.939 0 20.754-5.918 24.439-14.703 0.229-1.354 1.656-2.369 3.555-2.369 2.469 0 4.344 1.578 4.344 3.57 0 0.396-0.139 0.752-0.24 1l-0.123 0.416c-4.66 11.65-17.53 19.47-31.99 19.47zm-2.14-88.859c-16.791 0-30.422 11.268-30.422 25.168v34.92c0 13.859 13.57 25.162 30.215 25.162h2.346c12.93 0 24.428-6.826 28.59-17.041 0.012-0.059 0.029-0.119 0.055-0.166-0.16-0.012-0.422-0.076-0.65-0.076-4.518 10.309-15.627 17.117-27.994 17.117h-2.36c-16.182 0-29.324-11.219-29.324-24.996v-17.639h61.383c0.293 0 0.525-0.184 0.566-0.231l-0.018-17.05c0-14.34-13.217-25.168-30.666-25.168h-1.73zm31.49 42.239h-61.021v-17.068c0-13.777 13.25-24.996 29.531-24.996h2.139c16.227 0 29.352 11.219 29.352 24.996v17.07zm-57.43-3.57h53.848v-13.504c0-11.785-11.596-21.399-25.775-21.399h-2.139c-14.285 0-25.934 9.614-25.934 21.399v13.5z"/>
<path d="m522.66 183.85c-1.008 0-2.125-0.711-2.125-1.947v-59.718c0-12.979-12.576-23.419-27.764-23.419h-2.121c-15.195 0-27.783 9.723-27.783 21.615v61.521c0 1.236-1.008 1.947-2.355 1.947-1.01 0-2.129-0.711-2.129-1.947v-84.913c0-1.244 1.119-1.793 2.129-1.793 1.348 0 2.355 0.549 2.355 1.793v11.137c4.109-7.718 16.061-13.109 27.783-13.109h2.121c17.729 0 32.252 12.039 32.252 27.173v59.718c-0.01 1.24-1.26 1.95-2.37 1.95z"/>
<path d="m522.66 185.68c-2.205 0-3.936-1.666-3.936-3.775v-59.718c0-11.903-11.619-21.598-25.953-21.598h-2.121c-14.061 0-25.945 9.048-25.945 19.794v61.521c0 2.18-1.773 3.775-4.193 3.775-2.201 0-3.854-1.666-3.854-3.775v-84.893c0-2.064 1.588-3.582 3.854-3.582 2.506 0 4.193 1.449 4.193 3.582v5.834c5.721-5.77 15.748-9.615 25.945-9.615h2.121c18.783 0 34.092 12.995 34.092 28.981v59.718c0.01 2.3-2.15 3.77-4.19 3.77zm-32.01-88.687h2.121c16.271 0 29.604 11.309 29.604 25.194v59.718c0 0.166 0.285 0.166 0.285 0.166 0.301 0 0.551-0.131 0.562-0.207l-0.012-59.677c0-14.011-13.6-25.366-30.439-25.366h-2.121c-11.283 0-22.545 5.232-26.172 12.156l-3.348 6.458v-18.425c-0.035 0.025-0.254-0.033-0.619-0.033-0.156 0-0.328 0.059-0.363 0.092l0.082 84.832c0 0.16 0.275 0.166 0.275 0.166 0.406 0 0.607-0.119 0.631-0.131l-0.006-61.557c0.01-12.91 13.25-23.397 29.53-23.397z"/>
<path d="m558.26 162.84v-63.716h-11.535c-3.242 0-3.242-3.76 0-3.76h11.535v-36.151c0-2.523 4.486-2.523 4.486 0v36.151h18.967c2.996 0 2.996 3.76 0 3.76h-18.967v63.717c0 9.51 8.764 17.258 20.234 17.258 2.98 0 2.98 3.754 0 3.754-14.08 0-24.72-9.34-24.72-21.01z"/>
<path d="m582.98 185.68c-14.887 0-26.516-10.045-26.516-22.84v-61.877h-9.74c-2.709 0-4.166-1.906-4.166-3.71 0-1.786 1.457-3.688 4.166-3.688h9.74v-34.349c0-2.095 1.754-3.694 4.053-3.694 2.234 0 3.994 1.6 3.994 3.694v34.353h17.201c2.684 0 4.088 1.902 4.088 3.688 0 1.804-1.404 3.71-4.088 3.71h-17.201v61.877c0 8.668 8.109 15.449 18.469 15.449 2.66 0 4.076 1.895 4.076 3.674 0.01 1.83-1.4 3.72-4.07 3.72zm-36.82-88.4c0.09 0 0.203 0.065 0.564 0.065h13.299v65.495c0 10.787 10.146 19.23 22.957 19.23 0.344 0 0.486-0.09 0.516-0.113-0.029 0-0.172-0.053-0.516-0.053-12.346 0-22.041-8.398-22.041-19.064v-65.504h20.773c0.355 0 0.445-0.083 0.445-0.083s-0.09-0.083-0.445-0.083h-20.773v-37.967c-0.018-0.026-0.871-0.032-0.943 0.027l0.027 37.939h-13.299c-0.398 0-0.51 0.06-0.582 0.101z"/>
</svg>
