<?xml version="1.0" encoding="UTF-8" standalone="no"?>
<!-- Created with Inkscape (http://www.inkscape.org/) -->
<svg id="svg2867" xmlns="http://www.w3.org/2000/svg" height="283.61" width="602.36" version="1.0">
 <g id="layer1" transform="translate(-66.535 -408.27)">
  <g id="g2879" transform="translate(17.717 17.713)">
   <path id="path2476" d="m186.26 431.79c-0.21 3.11-2.84 3.25-5.63 3.24l-53.39-0.14c-2.79 0-5.37 0.15-6.19-2.96h-2.4c0 3-0.29 5.84-0.7 8.74-0.32 3-0.85 5.98-1.27 8.87h3.1c1.55-7.55 1.96-9.44 9.72-9.44h16.9v55.22c-0.01 8.17-2.91 8.74-8.59 8.73h-1.98v3.1c4.04 0 11.27-0.43 17.47-0.42 5.58 0 12.73 0.41 16.76 0.42v-3.1h-1.83c-4.97 0-8.6-0.91-8.59-8.87v-55.08h16.9c6.93 0.02 7.54 6.18 7.75 10l3.1-1.12c0-2.79-0.07-5.66 0.14-8.45 0.31-2.8 0.71-5.52 1.12-8.31l-2.39-0.43zm29.44 0.71c-0.31 0-0.54 0.03-0.85 0.14-1.96 1.24-6.13 3.37-9.43 4.51-0.63 3.82-2.46 8.99-3.81 12.81l-16.62 47.33c-1.55 4.34-4.98 6.76-9.01 6.76h-0.57v3.1c3.73-0.2 7.41-0.43 11.13-0.42 4.14 0 8.4 0.21 12.54 0.42v-3.1h-1.13c-3.41 0-7.75-0.42-7.75-3.52 0-1.87 1.22-4.65 2.26-8.17l3.38-10.7h23.38l4.08 11.97c1.14 3.31 2.12 6.12 2.12 7.46 0 2.58-4.11 2.96-6.48 2.96h-1.13v3.1c5.28-0.2 10.43-0.29 15.49-0.28 4.97 0 9.58 0.21 14.23 0.42v-3.1h-0.56c-3.42 0-5.52-1.33-6.76-4.22-1.35-3.11-2.71-6.94-3.95-10.57l-18.87-54.08c-0.31-0.83-0.68-1.71-0.99-2.54-0.2-0.31-0.39-0.28-0.7-0.28zm233.39 0.14c-0.3 0-0.54 0.04-0.85 0.14-1.96 1.24-6.13 3.37-9.43 4.51-0.62 3.82-2.46 8.99-3.81 12.81l-16.62 47.47c-1.55 4.35-4.98 6.76-9.01 6.76h-0.56v3.1c3.72-0.2 7.4-0.43 11.12-0.42 4.14 0 8.41 0.21 12.54 0.42v-3.1h-1.13c-3.41 0-7.75-0.56-7.74-3.66 0-1.86 1.21-4.51 2.25-8.03l3.38-10.84 23.38 0.14 4.09 11.97c1.13 3.31 2.11 6.12 2.11 7.46 0 2.59-4.1 2.96-6.48 2.96h-1.13v3.1c5.28-0.2 10.43-0.43 15.5-0.42 4.96 0 9.71 0.21 14.36 0.42v-3.1h-0.7c-3.41 0-5.52-1.19-6.76-4.08-1.34-3.11-2.57-6.94-3.81-10.57l-19.01-54.08c-0.31-0.83-0.68-1.85-0.99-2.68-0.2-0.31-0.39-0.28-0.7-0.28zm-355.79 0.7c-13.341-0.01-22.806 7.97-22.818 21.41-0.022 24.93 30.431 19.31 30.421 37.61 0 7.34-5.783 11.7-12.814 11.69-9.826 0-14.688-7.68-15.916-16.48l-2.958 0.71c0.512 5.27 1.177 10.35 1.69 15.63 5.065 2.59 10.688 4.78 16.48 4.79 13.238 0.01 25.058-7.42 25.068-21.69 0.03-24.82-31.001-19.74-30.984-36.91 0.005-8.16 4.507-12.97 12.676-12.95 7.138 0 11.538 6.37 12.258 13.1l2.81-0.57c-0.61-4.97-0.99-9.93-0.98-14.79-3.21-0.41-12.037-1.55-14.933-1.55zm158.46 1.69v3.1h1.4c4.66 0 9.31 3.51 9.3 9.3v43.52c-0.01 8.27-2.16 13.25-9.3 13.24h-1.4v3.1c4.65 0.01 9.43-0.42 14.08-0.42 4.45 0 8.8 0.41 13.24 0.42v-3.1h-1.69c-7.96 0-9.72-3.11-9.72-12.11v-42.68l53.24 59.44h3.95c-0.51-3.21-0.71-6.8-0.71-10.42l0.14-47.05c0.02-12.3 4.82-13.1 9.16-13.1h1.55v-3.1c-4.24 0-8.43 0.43-12.68 0.43-4.86-0.01-9.64-0.57-14.51-0.57v3.24h2.26c3.1 0 9.02 1.24 9.01 9.72v38.74l-0.28 0.14-45.92-51.84c-3.1 0-6.05 0.43-9.15 0.43-3.93-0.01-8.04-0.43-11.97-0.43zm87.75 0.14v3.1h1.41c3.72 0.01 7.61 0.54 7.6 5.92v54.09c0 5.38-3.88 5.91-7.6 5.91h-1.55v3.1c2.68 0 10.01-0.43 17.04-0.42 7.03 0 14.32 0.21 18.87 0.42 21 1.26 38.44-15.52 38.46-36.2 0.01-21.62-15.69-35.89-41.13-35.92-4.45 0-10 0.44-16.62 0.43s-13.38-0.42-16.48-0.43zm145.21 0.15v3.09h1.98c3.21 0 7.33 0.34 7.32 7.89l-0.14 52.54c-0.01 3.82-3.5 5.49-7.32 5.49h-1.84v3.1c5.18 0.01 9.97-0.43 14.94-0.42 5.89 0 11.98 0.42 17.88 0.42v-3.1h-1.97c-4.75 0-8.46-0.34-8.45-8.31v-22.11h6.9c6.71 11.89 13.46 23.07 21.41 33.52 3.21 0.01 6.51-0.29 9.72-0.28 3.42 0 6.73 0.42 10.14 0.42v-3.1c-5.07-0.62-7.1-1.99-10-6.33l-17.61-26.49c8.18-3.2 14.36-8.85 14.37-18.16 0.01-14.69-11.62-18.16-24.65-18.17-5.48-0.01-10.41 0.42-16.62 0.42-6.31-0.01-12.75-0.42-16.06-0.42zm74.52 0v3.09h1.4c3.73 0 7.76 0.54 7.75 5.92l-0.14 54.23c-0.01 5.38-3.88 5.92-7.61 5.91h-1.4v3.1c2.69 0 10.01-0.43 17.04-0.42 7.04 0.01 14.18 0.21 18.73 0.42 20.99 1.26 38.43-15.65 38.45-36.34 0.02-21.61-15.54-35.89-40.98-35.91-4.45 0-10.01 0.42-16.62 0.42-6.62-0.01-13.52-0.42-16.62-0.42zm-190.44 3.52c16.55 0.01 30.45 6.92 30.43 34.22-0.02 15.93-9.18 30.59-26.76 30.57-7.45-0.01-10.71-0.94-10.71-8.17v-56.06c2.28-0.2 4.67-0.57 7.04-0.56zm144.38 0.14c9.2 0 15.08 6.01 15.07 15.21-0.01 12.21-5.72 16.07-16.06 16.06h-5.07l0.14-30.85c1.45-0.11 2.81-0.42 5.92-0.42zm75.35 0.14c16.56 0.02 30.45 6.78 30.43 34.08-0.02 15.93-9.05 30.59-26.62 30.57-7.45-0.01-10.86-0.93-10.85-8.17l0.14-56.06c2.28-0.2 4.53-0.42 6.9-0.42zm-381.14 7.46h0.28l9.44 29.3h-19.3l9.58-29.3zm233.39 0.29h0.28l9.44 29.15h-19.3l9.58-29.15zm-350.58 108.59c-8.108-0.01-14.779 5.33-14.79 12.82 0 7.39 5.651 13.44 8.874 17.61-9.071 5.76-16.897 12.46-16.902 24.36-0.012 11.81 9.746 21.57 23.804 21.55 10.945-0.02 18.075-6.37 21.405-10.84l6.48 8.17h5.64l-9.72-11.69c2.91-4.92 4.8-12.8 4.22-18.74h-4.08c0.56 4.29-0.69 11.42-2.96 15.5l-22.394-27.47c6.688-4.19 14.784-8.81 14.794-17.89-0.01-6.49-5.368-13.39-14.371-13.38zm141.7 0.57c-21.52-0.03-38.15 16.66-38.18 38.17-0.01 22.23 16.67 37.16 38.6 37.18 22.02 0.02 39.13-15.79 39.16-39.58 0.01-22.03-17.56-35.76-39.58-35.77zm86.2 0.14c-21.51-0.03-38.15 16.52-38.17 38.03-0.02 22.23 16.66 37.16 38.59 37.18 22.02 0.02 39.13-15.79 39.16-39.58 0.01-22.03-17.56-35.61-39.58-35.63zm165.22 0.14c-13.35-0.01-22.8 7.96-22.82 21.41-0.02 24.92 30.44 19.16 30.42 37.46 0 7.34-5.78 11.84-12.82 11.83-9.82-0.01-14.68-7.68-15.91-16.47l-2.96 0.7c0.51 5.27 1.18 10.36 1.69 15.63 5.07 2.6 10.69 4.65 16.48 4.65 13.24 0.01 25.06-7.42 25.07-21.69 0.02-24.82-31-19.59-30.99-36.76 0.02-8.18 4.51-13.11 12.68-13.1 7.14 0 11.54 6.51 12.26 13.24l2.81-0.56c-0.62-4.97-0.99-9.94-0.98-14.79-3.21-0.42-12.04-1.55-14.93-1.55zm-349.03 1.26v3.1h1.26c4.97 0 6.91 1.24 6.9 8.17v49.44c-0.01 8.27-3.37 8.32-6.47 8.31h-1.69v3.1c5.89 0.01 11.49-0.43 17.18-0.42 5.28 0 10.36 0.42 15.63 0.42v-3.1h-1.55c-5.27 0-9.86-0.21-9.86-8.59v-56.76h3.1c10.66 0.01 15.5 6.55 15.5 16.48-0.01 10.23-3.74 17.76-12.12 17.74h-2.25v3.1c2.38 0.01 5.1-0.08 8.31-0.28 11.38-1.13 19.98-8.88 20-20.99 0.01-15.1-10.3-19.7-24.37-19.72-4.65 0-9.69 0.43-15.07 0.43-5.27-0.01-10.78-0.42-14.5-0.43zm230.01 0.15v3.09h1.97c3.2 0 7.33 0.34 7.32 7.89l-0.14 52.54c0 3.83-3.5 5.63-7.32 5.63h-1.83v3.1c5.16 0.01 9.96-0.43 14.93-0.42 5.9 0.01 11.99 0.41 17.88 0.42v-3.1h-1.97c-4.76 0-8.45-0.35-8.45-8.31v-22.11h6.9c6.71 11.9 13.46 23.07 21.41 33.52 3.21 0 6.52-0.42 9.72-0.42 3.42 0.01 6.73 0.42 10.14 0.42v-3.1c-5.06-0.62-7.11-1.85-10-6.19l-17.6-26.48c8.17-3.2 14.36-8.87 14.36-18.17 0.02-14.69-11.62-18.3-24.65-18.31-5.48-0.01-10.41 0.42-16.62 0.42-6.31-0.01-12.75-0.42-16.05-0.42zm74.93 0.14c-3.43 0.55-6.06 3.01-6.06 6.9 0 3.82 2.2 4.94 4.37 5.77s4.51 1.41 4.51 4.51c0 5.07-6.16 8.05-10.71 8.87l1.41 3.1c8.69-2.37 17.04-8.62 17.04-18.45 0.01-5.58-3.01-10.7-9.01-10.7-0.52 0-1.06-0.08-1.55 0zm-349.17 1.4c6.18 0.03 10.282 4.51 10.282 9.58-0.05 7.68-8.462 12.2-12.818 14.93-2.118-2.61-7.735-9.02-7.746-15.07 0-5.6 4.422-9.49 10.282-9.44zm141.55 1.41c17.17 0.02 25.37 18.29 25.36 33.39s-3.6 32.69-23.67 32.67c-16.75-0.01-25.23-17.68-25.21-36.2 0.01-13.86 5.43-29.87 23.52-29.86zm86.35 0c17.16 0.01 25.22 18.29 25.21 33.39-0.01 15.09-3.46 32.83-23.52 32.81-16.76-0.01-25.23-17.68-25.22-36.2 0.02-13.85 5.43-30.01 23.53-30zm74.79 0.85c9.2 0.01 15.08 5.87 15.07 15.07-0.01 12.21-5.72 16.06-16.06 16.06h-5.07l0.14-30.71c1.45-0.1 2.81-0.42 5.92-0.42zm-306.07 27.46l23.383 28.88c-2.47 3.59-8.7 10.15-18.735 10.14-10.552 0.01-19.747-6.89-19.719-17.61 0.006-11.92 10.096-18.44 15.071-21.41z"/>
   <path id="path2534" d="m66.535 408.27v3.8h206.06v-3.8h-206.06zm0 123.95v3.8h206.06v-3.8h-206.06zm0 120.43v3.8h206.06v-3.8h-206.06z" fill="#dc241f"/>
  </g>
 </g>
</svg>
