<?xml version="1.0" encoding="UTF-8" standalone="no"?>
<svg id="svg2" xmlns:rdf="http://www.w3.org/1999/02/22-rdf-syntax-ns#" xmlns="http://www.w3.org/2000/svg" xml:space="preserve" height="326.46" width="899.78" version="1.1" xmlns:cc="http://creativecommons.org/ns#" viewBox="0 0 899.78375 326.45999" xmlns:dc="http://purl.org/dc/elements/1.1/"><metadata id="metadata8"><rdf:RDF><cc:Work rdf:about=""><dc:format>image/svg+xml</dc:format><dc:type rdf:resource="http://purl.org/dc/dcmitype/StillImage"/></cc:Work></rdf:RDF></metadata><defs id="defs6"><clipPath id="clipPath16" clipPathUnits="userSpaceOnUse"><path id="path18" d="m0 261.17h719.83v-261.17h-719.83v261.17z"/></clipPath></defs><g id="g10" transform="matrix(1.25,0,0,-1.25,0,326.46)"><g id="g12"><g id="g14" clip-path="url(#clipPath16)"><g id="g20" transform="translate(148.25 159.81)"><path id="path22" d="m0 0c-4.809 4.834-14.452 10.939-14.452 10.939s-1.919 11.237-3.215 15.399c8.672 8.372 9.967 9.643 18.315 17.666 0.648-16.047 0.324-24.394-0.648-44.004" fill-rule="evenodd" fill="#000222"/></g><g id="g24" transform="translate(155 126.1)"><path id="path26" d="m0 0c-5.781-1.595-6.429-1.919-12.21-3.538-6.104 3.538-11.561 5.457-16.694 4.834 0.648 3.189 1.594 5.457 2.566 8.347 10.914 1.595 18.937-4.186 26.338-9.643" fill-rule="evenodd" fill="#000222"/></g><g id="g28" transform="translate(243.63 130.58)"><path id="path30" d="m0 0c0-29.976-11.91-58.73-33.09-79.935-6.08-6.08-12.758-11.387-19.934-15.872 0 0-0.025-0.025-0.05-0.025l-38.772 48.314 32.119-3.538s15.424-1.595 18.937 0c3.215 1.271 20.557 25.69 20.557 25.69s-49.785 31.471-66.804 48.813c1.944 29.229-2.242 68.1-2.242 67.776-12.534-12.509-14.128-14.452-26.662-26.014-5.457 17.666-8.023 23.771-13.48 41.438-16.396-13.481-28.904-36.305-37.9-62.967-1.968-2.167-3.862-4.46-5.73-6.902-1.221-1.619-2.443-3.264-3.614-4.958-2.417-3.439-4.734-7.052-6.951-10.839-1.57-2.667-3.115-5.408-4.61-8.198-10.441-19.61-19.012-42.086-26.438-62.319-0.05 0.075-0.099 0.175-0.124 0.249-7.376 15.225-11.313 32.044-11.313 49.287 0 30.001 11.911 58.755 33.116 79.96 21.204 21.205 49.959 33.115 79.935 33.115 30 0 58.755-11.91 79.96-33.115 21.162-21.209 33.072-49.963 33.072-79.964" fill-rule="evenodd" fill="#000222"/></g><g id="g32" transform="translate(148.25 159.81)"><path id="path34" d="m0 0c-4.809 4.834-14.452 10.939-14.452 10.939s-1.919 11.237-3.215 15.399c8.672 8.372 9.967 9.643 18.315 17.666 0.648-16.047 0.324-24.394-0.648-44.004" fill-rule="evenodd" fill="#d10"/></g><g id="g36" transform="translate(155 126.1)"><path id="path38" d="m0 0c-5.781-1.595-6.429-1.919-12.21-3.538-6.104 3.538-11.561 5.457-16.694 4.834 0.648 3.189 1.594 5.457 2.566 8.347 10.914 1.595 18.937-4.186 26.338-9.643" fill-rule="evenodd" fill="#d10"/></g><g id="g40" transform="translate(243.63 130.58)"><path id="path42" d="m0 0c0-29.976-11.91-58.73-33.09-79.935-6.08-6.08-12.758-11.387-19.934-15.872 0 0-0.025-0.025-0.05-0.025l-38.772 48.314 32.119-3.538s15.424-1.595 18.937 0c3.215 1.271 20.557 25.69 20.557 25.69s-49.785 31.471-66.804 48.813c1.944 29.229-2.242 68.1-2.242 67.776-12.534-12.509-14.128-14.452-26.662-26.014-5.457 17.666-8.023 23.771-13.48 41.438-16.396-13.481-28.904-36.305-37.9-62.967-1.968-2.167-3.862-4.46-5.73-6.902-1.221-1.619-2.443-3.264-3.614-4.958-2.417-3.439-4.734-7.052-6.951-10.839-1.57-2.667-3.115-5.408-4.61-8.198-10.441-19.61-19.012-42.086-26.438-62.319-0.05 0.075-0.099 0.175-0.124 0.249-7.376 15.225-11.313 32.044-11.313 49.287 0 30.001 11.911 58.755 33.116 79.96 21.204 21.205 49.959 33.115 79.935 33.115 30 0 58.755-11.91 79.96-33.115 21.162-21.209 33.072-49.963 33.072-79.964" fill-rule="evenodd" fill="#d10"/></g><g id="g44" transform="translate(148.25 159.81)"><path id="path46" d="m0 0c-4.809 4.834-14.452 10.939-14.452 10.939s-1.919 11.237-3.215 15.399c8.672 8.372 9.967 9.643 18.315 17.666 0.648-16.047 0.324-24.394-0.648-44.004" fill-rule="evenodd" fill="#fff"/></g><g id="g48" transform="translate(155 126.1)"><path id="path50" d="m0 0c-5.781-1.595-6.429-1.919-12.21-3.538-6.104 3.538-11.561 5.457-16.694 4.834 0.648 3.189 1.594 5.457 2.566 8.347 10.914 1.595 18.937-4.186 26.338-9.643" fill-rule="evenodd" fill="#fff"/></g><g id="g52" transform="translate(155 126.1)"><path id="path54" d="m0 0c-5.781-1.595-6.429-1.919-12.21-3.538-6.104 3.538-11.561 5.457-16.694 4.834 0.648 3.189 1.594 5.457 2.566 8.347 10.914 1.595 18.937-4.186 26.338-9.643" fill-rule="evenodd"/></g><g id="g56" transform="translate(151.79 83.066)"><path id="path58" d="m0 0 38.772-48.315c0.024 0 0.049 0.025 0.049 0.025l-38.821 48.29zm-122.94-1.769c0.025-0.075 0.075-0.174 0.125-0.249 7.425 20.233 15.997 42.708 26.437 62.318-10.515-19.535-19.161-41.936-26.562-62.069" fill-rule="evenodd" fill="#000222"/></g><g id="g60" transform="translate(210.54 50.649)"><path id="path62" d="m0 0c-6.08-6.08-12.758-11.387-19.934-15.872 0 0-0.025-0.025-0.05-0.025l-38.771 48.314 32.118-3.538s15.424-1.595 18.937 0c3.215 1.271 20.557 25.69 20.557 25.69s-49.785 31.471-66.803 48.813c1.943 29.229-2.243 68.1-2.243 67.776-12.533-12.509-14.128-14.452-26.661-26.014-5.457 17.666-8.024 23.771-13.481 41.438-16.395-13.481-28.904-36.305-37.899-62.967-1.969-2.167-3.862-4.46-5.731-6.902-1.221-1.619-2.442-3.264-3.613-4.958-2.417-3.439-4.735-7.052-6.952-10.839-1.57-2.667-3.115-5.408-4.61-8.198-0.648-1.221-1.296-2.467-1.943-3.713-9.569-18.688-17.542-39.644-24.494-58.606-0.05 0.075-0.1 0.175-0.125 0.249-7.376 15.225-11.313 32.044-11.313 49.287 0 30.001 11.911 58.755 33.116 79.96s49.959 33.115 79.935 33.115c30.001 0 58.755-11.91 79.96-33.115 21.152-21.21 33.062-49.96 33.062-79.965 0-29.976-11.91-58.73-33.09-79.935m-79.96 135.5c8.671 8.372 9.967 9.643 18.314 17.666 0.648-16.046 0.324-24.394-0.648-44.004-4.809 4.834-14.452 10.939-14.452 10.939s-1.918 11.238-3.214 15.399m40.142-161.86c-69.271-25.042-119.33 21.056-130.02 37.177 0.05 0.15 0.074 0.274 0.099 0.424 9.619 40.665 21.479 89.329 40.641 103.71 9.967 17.368 12.857 43.057 30.823 56.538 4.51-13.481 11.586-41.438 16.395-54.918 21.205-21.205 53.324-47.543 74.827-58.457 2.243-1.295 5.133-10.29 5.133-10.29l-8.671-10.914-92.493 9.319c-2.069 0.174-4.137 0.249-6.205 0.249-5.93 0-12.01-0.673-19.161-1.844 4.485 11.238 14.128 20.233 14.128 20.233s-8.995 5.457-15.748 6.404c1.944 4.51 7.077 10.291 8.372 11.885-2.591-0.946-21.204-9.294-23.148-16.37 8.995-2.243 15.424-5.133 15.424-5.133s-9.942-9.967-11.886-27.31c0 0 29.552 4.51 51.729 1.62 0.623-0.324 0.947-0.324 1.271-0.324l11.561-0.324 36.729-61.147 0.299-0.474c-0.05-0.025-0.075-0.05-0.1-0.05m48.661 195.1c-23.547 23.547-55.492 36.778-88.806 36.778-33.29 0-65.234-13.231-88.806-36.778-23.547-23.547-36.778-55.491-36.778-88.806 0-33.29 13.231-65.234 36.778-88.781 23.572-23.572 55.516-36.803 88.806-36.803 33.314 0 65.259 13.231 88.806 36.803 23.547 23.547 36.778 55.491 36.778 88.781 0 33.315-13.231 65.259-36.778 88.806" fill-rule="evenodd"/></g><g id="g64" transform="translate(128.67 135.74)"><path id="path66" d="m0 0c10.914 1.595 18.937-4.186 26.338-9.643-5.781-1.595-6.429-1.919-12.21-3.538-6.105 3.538-11.562 5.457-16.695 4.834 0.648 3.189 1.595 5.457 2.567 8.347m-46.571-40.466c7.152 1.171 13.231 1.844 19.162 1.844 2.068 0 4.136-0.075 6.204-0.249l92.494-9.319 8.671 10.914s-2.89 8.995-5.133 10.291c-21.499 10.913-53.617 37.251-74.822 58.456-4.809 13.48-11.886 41.437-16.396 54.918-17.965-13.481-20.856-39.17-30.823-56.538-19.161-14.377-31.022-63.041-40.64-103.71-0.025-0.15-0.05-0.274-0.1-0.424 10.69-16.121 60.749-62.219 130.02-37.177 0.024 0 0.049 0.025 0.099 0.05l-0.299 0.474-36.728 61.147-11.562 0.324c-0.324 0-0.648 0-1.271 0.324-22.176 2.89-51.728-1.62-51.728-1.62 1.943 17.343 11.885 27.31 11.885 27.31s-6.428 2.89-15.423 5.133c1.943 7.076 20.556 15.424 23.148 16.371-1.296-1.595-6.429-7.376-8.372-11.886 6.752-0.947 15.747-6.404 15.747-6.404s-9.643-8.995-14.128-20.233" fill-rule="evenodd" fill="#fff"/></g><g id="g68" transform="translate(317.06 234.81)"><path id="path70" d="m0 0h14.591l13.236-61.596 10.213 61.596h12.403l-14.695-79.104h-14.278l-14.175 65.138-14.174-65.138h-14.278l-14.697 79.104h12.403l10.215-61.596 13.236 61.596z"/></g><g id="g72" transform="translate(370.52 182.7)"><path id="path74" d="m0 0c0 16.05 4.586 27.306 23.139 27.306 18.55 0 23.135-11.256 23.135-27.306 0-16.051-4.585-27.306-23.135-27.306-18.553 0-23.139 11.255-23.139 27.306m34.498 0c0 11.151-1.459 17.509-11.359 17.509-9.903 0-11.363-6.358-11.363-17.509 0-11.152 1.46-17.51 11.363-17.51 9.9 0 11.359 6.358 11.359 17.51"/></g><g id="g76" transform="translate(425.75 169.46)"><path id="path78" d="m0 0v65.349h11.673v-65.245c0-2.919 1.042-3.959 4.378-3.959v-9.486s-1.043-0.208-2.294-0.208c-9.483 0-13.757 4.586-13.757 13.549"/></g><g id="g80" transform="translate(485.57 224.91)"><path id="path82" d="m0 0c-1.876 0.625-4.065 1.042-7.712 1.042-5.212 0-9.381-1.98-9.381-7.921v-9.277h14.696v-9.9h-14.696v-42.21h-11.672v42.21h-9.486v7.191l9.486 2.709v10.319c0 11.153 6.253 16.989 20.219 16.989 3.44 0 6.566-0.522 8.546-1.252v-9.9z"/></g><g id="g84" transform="translate(519.97 199.37)"><path id="path86" d="m0 0c-1.252 0.417-3.336 0.625-5.733 0.625-6.149 0-10.735-1.459-13.34-3.127v-40.229h-11.672v52.11h6.877l1.877-4.167c3.856 3.125 9.692 5.418 16.467 5.418 2.188 0 4.065-0.313 5.524-0.625v-10.005z"/></g><g id="g88" transform="translate(543.93 200)"><path id="path90" d="m0 0c-6.774 0-12.297-1.563-16.258-3.128v10.111c4.064 1.771 10.942 3.022 17.092 3.022 17.093 0 21.054-7.504 21.054-18.551v-34.81h-6.88l-1.876 4.168c-4.169-3.439-10.004-5.419-15.737-5.419-13.445 0-17.927 8.336-17.927 16.675 0 11.257 7.296 16.052 19.073 16.99l11.672 0.936v2.606c0 5.316-2.501 7.4-10.213 7.4m-0.729-19.282c-5.212-0.625-8.234-2.604-8.234-8.024 0-3.96 1.668-7.713 8.025-7.713 4.691 0 7.921 1.355 11.151 3.44v13.548l-10.942-1.251z"/></g><g id="g92" transform="translate(637 193.43)"><path id="path94" d="m0 0c0 4.899-2.815 6.67-7.4 6.67-5.107 0-8.546-1.563-11.256-3.231 0.208-1.876 0.312-3.647 0.312-5.731v-34.5h-11.673v36.792c0 4.899-2.709 6.67-7.398 6.67-4.797 0-8.235-1.458-10.944-3.023v-40.439h-11.674v52.112h6.879l1.875-4.168c4.378 3.439 10.632 5.419 15.738 5.419 6.982 0 11.152-1.98 13.34-5.21 4.691 3.334 10.944 5.21 16.677 5.21 12.298 0 17.197-6.671 17.197-16.571v-36.792h-11.673v36.792z"/></g><g id="g96" transform="translate(292.84 63.15)"><path id="path98" d="m0 0h33.977v-10.736h-45.65v78.168h11.673v-67.432z"/></g><g id="g100" transform="translate(349.64 95.771)"><path id="path102" d="m0 0c-6.775 0-12.299-1.563-16.258-3.128v10.111c4.064 1.771 10.942 3.022 17.092 3.022 17.093 0 21.054-7.504 21.054-18.551v-34.81h-6.88l-1.876 4.168c-4.169-3.439-10.004-5.419-15.737-5.419-13.445 0-17.927 8.336-17.927 16.675 0 11.257 7.296 16.052 19.073 16.99l11.672 0.936v2.606c0 5.316-2.501 7.4-10.213 7.4m-0.729-19.282c-5.212-0.625-8.234-2.604-8.234-8.024 0-3.96 1.667-7.713 8.025-7.713 4.691 0 7.921 1.355 11.151 3.44v13.548l-10.942-1.251z"/></g><g id="g104" transform="translate(414.57 52.414)"><path id="path106" d="m0 0v35.748c0 5.316-2.711 7.714-8.235 7.714-5.418 0-9.171-1.46-11.984-3.023v-40.439h-11.674v52.112h6.879l1.875-4.169c5.316 3.648 11.257 5.419 16.885 5.419 13.237 0 17.926-6.566 17.926-16.57v-36.792h-11.672z"/></g><g id="g108" transform="translate(457.08 66.172)"><path id="path110" d="m0 0c-2.19 0-4.274 0.104-6.045 0.417-0.834-0.834-1.459-1.98-1.459-3.022 0-1.773 0.938-2.711 3.126-3.023l18.865-2.293c10.319-1.25 13.966-5.939 13.966-14.591 0-13.444-14.175-18.552-29.287-18.552-13.965 0-24.076 4.482-24.076 15.216 0 7.089 5.316 11.257 10.84 12.924v0.104c-2.605 1.459-4.064 4.378-4.064 7.192 0 3.857 2.291 6.567 4.689 8.443-5.941 3.334-8.337 9.379-8.337 16.988 0 11.881 5.836 19.802 21.782 19.802 3.753 0 6.879-0.417 9.588-1.25h18.031v-7.4l-7.4-2.084c1.042-2.711 1.563-5.732 1.563-9.068 0-11.881-5.836-19.803-21.782-19.803m-3.649-15.32c-5.314-0.938-10.108-3.335-10.108-8.338 0-5.837 4.169-8.129 13.757-8.129 9.173 0 17.196 2.709 17.196 8.963 0 3.542-1.771 5.105-6.045 5.628l-14.8 1.876zm3.649 24.595c8.754 0 10.736 4.587 10.736 10.528 0 5.94-1.982 10.527-10.736 10.527s-10.736-4.587-10.736-10.527c0-5.941 1.982-10.528 10.736-10.528"/></g><g id="g112" transform="translate(503.15 104.53)"><path id="path114" d="m0 0v-35.748c0-5.316 2.709-7.712 8.233-7.712 5.42 0 9.173 1.458 11.985 3.021v40.439h11.675v-52.112h-6.881l-1.875 4.169c-5.316-3.646-11.255-5.418-16.884-5.418-13.236 0-17.926 6.565-17.926 16.571v36.79h11.673z"/></g><g id="g116" transform="translate(563.07 95.771)"><path id="path118" d="m0 0c-6.775 0-12.299-1.563-16.258-3.128v10.111c4.063 1.771 10.942 3.022 17.092 3.022 17.093 0 21.054-7.504 21.054-18.551v-34.81h-6.88l-1.876 4.168c-4.169-3.439-10.004-5.419-15.737-5.419-13.445 0-17.927 8.336-17.927 16.675 0 11.257 7.295 16.052 19.073 16.99l11.672 0.936v2.606c0 5.316-2.501 7.4-10.213 7.4m-0.729-19.282c-5.212-0.625-8.234-2.604-8.234-8.024 0-3.96 1.668-7.713 8.025-7.713 4.691 0 7.921 1.355 11.151 3.44v13.548l-10.942-1.251z"/></g><g id="g120" transform="translate(615.91 66.172)"><path id="path122" d="m0 0c-2.188 0-4.274 0.104-6.045 0.417-0.834-0.834-1.459-1.98-1.459-3.022 0-1.773 0.938-2.711 3.126-3.023l18.865-2.293c10.319-1.25 13.966-5.939 13.966-14.591 0-13.444-14.175-18.552-29.287-18.552-13.965 0-24.076 4.482-24.076 15.216 0 7.089 5.316 11.257 10.84 12.924v0.104c-2.605 1.459-4.064 4.378-4.064 7.192 0 3.857 2.291 6.567 4.689 8.443-5.941 3.334-8.337 9.379-8.337 16.988 0 11.881 5.836 19.802 21.782 19.802 3.753 0 6.879-0.417 9.588-1.25h18.031v-7.4l-7.4-2.084c1.042-2.711 1.563-5.732 1.563-9.068 0-11.881-5.837-19.803-21.782-19.803m-3.649-15.32c-5.314-0.938-10.109-3.335-10.109-8.338 0-5.837 4.17-8.129 13.758-8.129 9.173 0 17.196 2.709 17.196 8.963 0 3.542-1.772 5.105-6.044 5.628l-14.801 1.876zm3.649 24.595c8.754 0 10.736 4.587 10.736 10.528 0 5.94-1.982 10.527-10.736 10.527s-10.736-4.587-10.736-10.527c0-5.941 1.982-10.528 10.736-10.528"/></g><g id="g124" transform="translate(672.39 105.78)"><path id="path126" d="m0 0c18.342 0 21.261-12.09 21.261-26.473 0-1.771-0.106-3.438-0.208-5.107h-32.414c0.208-7.817 3.023-12.922 13.653-12.922 6.566 0 11.986 1.144 16.573 3.126v-10.005c-5.941-2.502-12.716-3.232-18.344-3.232-17.406 0-23.659 10.423-23.659 27.307 0 16.779 6.149 27.306 23.138 27.306m-11.361-23.451h20.845c0 7.089-0.417 13.34-9.484 13.34-8.548 0-10.944-5.522-11.361-13.34"/></g><g id="g128" transform="translate(702.36 115.86)"><path id="path130" d="m0 0h3.254l3.006-7.749 2.951 7.749h3.254v-11.472h-2.096v8.77h-0.055l-3.226-8.77h-1.71l-3.227 8.77h-0.055v-8.77h-2.096v11.472zm-8.328-1.93h-3.53v1.93h9.155v-1.93h-3.53v-9.542h-2.095v9.542z"/></g></g></g></g></svg>
