<?xml version="1.0" encoding="UTF-8" standalone="no"?>
<!-- Generator: Adobe Illustrator 18.1.0, SVG Export Plug-In . SVG Version: 6.00 Build 0)  -->
<svg id="Layer_1" xmlns="http://www.w3.org/2000/svg" xml:space="preserve" viewBox="115 -9.6 257.8 47.6" version="1.1" y="0px" x="0px" xmlns:xlink="http://www.w3.org/1999/xlink" enable-background="new 115 -9.6 257.8 47.6">
<g>
	<path d="m115-9.6h18.9c3.6 0 6.3 0.9 8.3 2.4 2.2 1.8 3.4 4.4 3.4 7.6 0 3.7-1.5 6-4.5 7.4v0.2c4 1.3 6.3 4.9 6.3 9.2 0 4.1-1.6 7.3-4.2 9.3-2.2 1.6-5 2.3-8.8 2.3h-19.4v-38.4zm17 15c2 0 3.5-1.1 3.5-3.4 0-2.2-1.5-3.3-3.6-3.3h-6.5v6.6h6.6zm0.9 14.9c2.3 0 4-1.4 4-3.9 0-2.7-1.8-3.9-4-3.9h-7.4v7.9h7.4z"/>
	<path d="m149.1-9.6h9.9v38.5h-9.9v-38.5z"/>
	<path d="m161 15.2c0-8.7 5.6-14.5 14.3-14.5s14.2 5.9 14.2 14.5c0 8.7-5.5 14.5-14.2 14.5s-14.3-5.8-14.3-14.5zm18.6 0c0-4.8-1.5-7.8-4.5-7.8s-4.4 3-4.4 7.8c0 4.8 1.4 7.9 4.4 7.9 3-0.1 4.5-3.1 4.5-7.9z"/>
	<path d="m190.6 15.2c0-8.7 5.6-14.5 14.3-14.5s14.1 5.8 14.1 14.5c0 8.7-5.5 14.5-14.2 14.5-8.6 0-14.2-5.8-14.2-14.5zm18.6 0c0-4.8-1.5-7.8-4.5-7.8s-4.4 3-4.4 7.8 1.4 7.9 4.4 7.9c3-0.1 4.5-3.1 4.5-7.9z"/>
	<path d="m221 1.4h9.2v4.1h0.2c1.8-3.2 4.3-4.9 8.3-4.9 3.5 0 6.1 1.7 7.4 4.7h0.2c2.2-3.6 5.1-4.7 8.5-4.7 6.4 0 9.1 4.7 9.1 11v17.2h-9.6v-15.5c0-2.8-0.9-4.6-3.3-4.6s-3.6 2.2-3.6 5.2v14.9h-9.6v-15.5c0-2.8-0.9-4.6-3.3-4.6s-3.6 2.2-3.6 5.2v14.9h-9.9v-27.4z"/>
	<path d="m276 25.2h-0.1v3.6h-9.2v-38.4h9.6v13.8h0.2c1.8-2.4 4.3-3.7 7.8-3.7 6.9 0 10.9 6.2 10.9 14.5 0 9.3-4.3 14.7-11.5 14.7-3 0-6.1-1.4-7.7-4.5zm9.3-10.3c0-4.4-1.6-7.3-4.5-7.3-3 0-4.8 2.9-4.8 7.3s1.9 7.3 4.8 7.3 4.5-2.8 4.5-7.3z"/>
	<path d="m296.3 15.1c0-8.6 5.7-14.5 13.9-14.5 4.1 0 7.2 1.3 9.6 3.6 3.2 3.1 4.6 7.9 4.5 13.5h-18.4c0.4 3.4 2 5.2 4.9 5.2 1.7 0 3.2-0.8 3.8-2.6h9.3c-1.6 6.3-6.5 9.4-13.4 9.4-8.5-0.1-14.2-5.9-14.2-14.6zm9.6-2.9h8.8c-0.2-3.3-2-5-4.3-5-2.7-0.1-4.2 1.8-4.5 5z"/>
	<path d="m335.2 6.1h0.2c2-3.8 4.6-5.3 7.9-5.3 0.8 0 1.3 0.1 1.6 0.3v8.4h-0.2c-5.7-1-9 1.7-9 7.9v11.5h-9.7v-27.5h9.2v4.7z"/>
	<path d="m345.9 28.9h9.3c0.4 1.2 1.6 2.3 3.9 2.3 3.1 0 4.2-1.9 4.2-4.8v-2h-0.2c-1.5 1.8-3.6 3.1-6.6 3.1-5.9 0-11.1-4.4-11.1-13 0-7.9 4.2-14 10.6-14 3.7 0 5.9 1.5 7.4 3.8h0.2v-3h9.2v23.8c0 4.4-1.5 7.8-3.8 9.8-2.4 2.1-5.8 3-9.7 3-7.4 0.1-12.5-2.9-13.4-9zm17.8-14.8c0-3.4-1.6-6.2-4.4-6.2-2.7 0-4.4 2.4-4.4 6.2 0 3.7 1.7 6.3 4.4 6.3s4.4-2.7 4.4-6.3z"/>
</g>
</svg>
