<?xml version="1.0" encoding="UTF-8" standalone="no"?>
<svg xmlns="http://www.w3.org/2000/svg" height="80px" width="268px" version="1.1" xmlns:xlink="http://www.w3.org/1999/xlink" viewBox="0 0 268 80">
 <title>heroku logotype</title>
 <style>.heroku-logotype {
        fill:#430098;
    }
    rect {
        fill: transparent;
    }</style>
 <symbol id="heroku-text">
  <path d="m62.848 6.736v-6.529h2.948v6.515c0 1.503 0.486 2.181 1.666 2.181 1.179 0 1.65-0.678 1.65-2.181v-6.515h2.888v6.529c0 2.889-1.385 4.539-4.569 4.539s-4.583-1.65-4.583-4.539zm-12.42-6.529h2.948v3.95l3.007-3.95h3.419l-3.67 4.304 3.994 6.603h-3.331l-2.579-4.363-0.84 0.973v3.39h-2.948v-10.907zm-13.995 5.453c0-3.993 2.726-5.66 5.365-5.66 2.623 0 5.35 1.666 5.35 5.66s-2.727 5.66-5.35 5.66c-2.639-0.001-5.365-1.666-5.365-5.66zm7.766 0c0-2.004-0.87-3.227-2.402-3.227-1.548 0-2.417 1.223-2.417 3.227 0 2.005 0.87 3.302 2.417 3.302 1.533-0.001 2.402-1.297 2.402-3.302zm-19.611-5.453h4.259c2.8 0 4.51 0.929 4.51 3.552 0 1.709-0.722 2.698-2.152 3.183l2.314 4.171h-3.124l-2.108-3.787h-0.811v3.787h-2.889v-10.906h0.001zm4.156 4.878c1.209 0 1.739-0.339 1.739-1.253s-0.531-1.238-1.739-1.238h-1.267v2.491h1.267zm-15.426-4.878h7.782v2.447h-4.834v1.769h3.449v2.299h-3.449v2.019h5.085v2.373h-8.032v-10.907h-0.001zm-13.318 0h2.948v4.053h3.626v-4.053h2.948v10.906h-2.948v-4.407h-3.626v4.407h-2.948v-10.906z"/>
 </symbol>
 <symbol id="heroku-h">
  <path d="m19 68l9-8-9-8v16zm32.517-32.425c-1.612-1.631-4.572-3.575-9.517-3.575-5.423 0-11.006 1.411-15 2.711v-22.711h-8v34.692l5.651-2.56c0.091-0.041 9.215-4.132 17.349-4.132 4.062 0 4.961 2.243 5 4.11v23.89h8v-24c0.005-0.512-0.042-4.945-3.483-8.425zm-10.517-10.575h8c3.618-4.1 5.46-8.456 6-13h-8c-0.882 4.534-2.856 8.875-6 13z"/>
 </symbol>
 <symbol id="heroku-border">
  <path d="m64.8 0h-57.6c-3.976 0-7.2 3.224-7.2 7.2v65.6c0 3.976 3.224 7.2 7.2 7.2h57.6c3.976 0 7.2-3.224 7.2-7.2v-65.6c0-3.976-3.224-7.2-7.2-7.2zm3.2 72.8c0 1.764-1.435 3.2-3.2 3.2h-57.6c-1.764 0-3.2-1.436-3.2-3.2v-65.6c0-1.765 1.436-3.2 3.2-3.2h57.6c1.765 0 3.2 1.435 3.2 3.2v65.6z"/>
 </symbol>
 <g id="heroku-logotype" y="0" x="0" fill-rule="evenodd" class="heroku-logotype">
  <rect y="1" x="1" height="78" rx="5" width="70"/>
  <use xlink:href="#heroku-border"/>
  <use xlink:href="#heroku-h"/>
  <use y="10" x="35" xlink:href="#heroku-text" transform="scale(2.5)"/>
 </g>
</svg>
