<?xml version="1.0" encoding="UTF-8" standalone="no"?>
<svg style="background:#fff" xmlns="http://www.w3.org/2000/svg" viewBox="0 0 485 182">
 <g fill-rule="evenodd" transform="translate(47 48)" fill="none">
  <path d="m128.19 56.862l-0.07-0.972h-0.98-6.05-1.09l0.04 1.093c0.5 12.177 8.71 20.243 23.31 20.243 13.93 0 23.4-7.235 23.4-18.186 0-5.922-2.06-10.112-5.97-12.974-3.01-2.201-6.61-3.442-12.58-4.737-0.4-0.086-0.82-0.175-1.32-0.28-0.29-0.062-1.35-0.284-1.3-0.272-10.84-2.273-14.28-4.248-14.28-10.129 0-6.081 4.97-9.954 13.31-9.954 8.12 0 13.25 4.956 13.49 12.758l0.03 1.018h1.02 5.96 1.07l-0.02-1.074c-0.28-12.161-8.44-20.346-21.63-20.346-12.93 0-21.46 7.778-21.46 17.85 0 5.905 2.05 10.017 5.97 12.764 2.99 2.093 6.45 3.203 12.55 4.435l0.94 0.188c0.22 0.044 0.47 0.093 0.94 0.185 5.77 1.142 8.32 1.848 10.64 3.2 2.89 1.678 4.32 4.075 4.32 7.788 0 6.447-5.42 10.122-14.91 10.122-9.08 0-14.72-4.556-15.33-12.72zm55.57-44.862v-1.05h-1.05-5.97-1.05v1.05 63 1.05h1.05 5.97 1.05v-1.05-11.233l8.49-8.267 15.16 20.132 0.31 0.418h0.52 7.4 2.11l-1.28-1.685-18.51-24.385 17.07-16.992 1.81-1.794h-2.55-7.98-0.44l-0.3 0.31-21.81 21.964v-41.468zm75.35 44.394h0.98l0.06-0.985c0.01-0.173 0.03-0.459 0.05-0.804 0.01-0.273 0.02-0.539 0.03-0.79 0.01-0.273 0.01-0.521 0.01-0.739 0-13.179-8.73-22.89-21.63-22.89-12.88 0-22.05 10.337-22.05 23.394 0 13.436 8.76 23.478 22.13 23.478 10.12 0 17.93-6.001 20.75-15.104l0.42-1.36h-1.43-6.21-0.74l-0.25 0.699c-1.77 4.982-6.56 8.289-12.45 8.289-7.71 0-13.08-5.294-14.05-13.188h34.38zm-34.14-6.972c1.36-7.068 6.56-11.76 13.64-11.76 7.3 0 12.33 4.538 13.43 11.76h-27.07zm61.73-11.088h1.05v-1.05-5.04-1.05h-1.05-8.78v-11.13-1.05h-1.05-5.96-1.05v1.05 11.13h-7.1-1.05v1.05 5.04 1.05h1.05 7.1v25.158c0 8.253 4.28 12.726 12.14 12.726 1.37 0 2.55-0.082 3.54-0.22 0.62-0.085 1.04-0.173 1.27-0.238l0.77-0.214v-0.798-5.376-1.303l-1.27 0.277c-0.05 0.011-0.16 0.032-0.3 0.06-0.25 0.046-0.53 0.093-0.83 0.137-0.76 0.112-1.52 0.184-2.22 0.197-0.07 0.001-0.14 0.002-0.21 0.002-3.44 0-4.83-1.617-4.83-5.67v-24.738h8.78zm25.07 38.724c11.17 0 19.05-7.063 21.03-17.058l0.24-1.254h-1.27-6.05-0.81l-0.21 0.78c-1.69 6.379-6.29 10.056-12.93 10.056-8.27 0-13.98-6.529-13.98-15.918 0-9.462 5.7-16.002 13.98-16.002 6.64 0 11.24 3.677 12.93 10.056l0.21 0.78h0.81 6.05 1.27l-0.24-1.254c-1.98-9.995-9.86-17.058-21.03-17.058-12.96 0-22.13 10.41-22.13 23.478 0 12.996 9.18 23.394 22.13 23.394zm36.12-65.058v-1.05h-1.05-5.96-1.05v1.05 63 1.05h1.05 5.96 1.05v-1.05-25.284c0-7.704 4.69-12.222 11.81-12.222 6.79 0 10.2 3.933 10.2 11.382v26.124 1.05h1.05 5.97 1.05v-1.05-27.3c0-10.522-6.52-17.514-17.27-17.514-5.52 0-9.97 2.026-12.81 4.933v-23.119z" fill="#000"/>
  <path d="m20.903 2.8315l27-2.8315 27 2.8315 20.903 27.834-47.903 55.334-47.903-55.334 20.903-27.834z" fill="#FDB300"/>
  <g transform="translate(0 30.666)">
   <polygon points="19.403 0 47.903 55.334 0 0" fill="#EA6C00"/>
   <polygon points="67.306 0 95.806 55.334 47.903 0" transform="translate(71.855 27.667) scale(-1 1) translate(-71.855 -27.667)" fill="#EA6C00"/>
   <polygon points="19.403 0 76.403 0 47.903 55.334" fill="#FDAD00"/>
  </g>
  <polygon points="47.903 0 20.903 2.831 19.403 30.666" fill="#FDD231"/>
  <polygon points="76.403 0 49.403 2.831 47.903 30.666" transform="translate(62.153 15.333) scale(-1 1) translate(-62.153 -15.333)" fill="#FDD231"/>
  <polygon points="74.903 30.666 95.806 2.831 94.306 30.666" transform="translate(85.355 16.749) scale(-1 1) translate(-85.355 -16.749)" fill="#FDAD00"/>
  <polygon points="0 30.666 20.903 2.831 19.403 30.666" fill="#FDAD00"/>
  <polygon points="47.903 0 19.403 30.666 76.403 30.666" fill="#FEEEB7"/>
 </g>
</svg>
