<?xml version="1.0" ?>
<svg height="100" id="svg2" version="1.1" width="100" xmlns="http://www.w3.org/2000/svg" xmlns:cc="http://creativecommons.org/ns#" xmlns:dc="http://purl.org/dc/elements/1.1/" xmlns:inkscape="http://www.inkscape.org/namespaces/inkscape" xmlns:rdf="http://www.w3.org/1999/02/22-rdf-syntax-ns#" xmlns:sodipodi="http://sodipodi.sourceforge.net/DTD/sodipodi-0.dtd" xmlns:svg="http://www.w3.org/2000/svg">
   <defs id="defs4">
      <clipPath clipPathUnits="userSpaceOnUse" id="clipPath3882">
         <path d="m 68.76735,1000.1226 c 0,19.7849 -16.038849,35.8238 -35.823772,35.8238 -19.784923,0 -35.8237726,-16.0389 -35.8237726,-35.8238 0,-19.78496 16.0388496,-35.82381 35.8237726,-35.82381 19.784923,0 35.823772,16.03885 35.823772,35.82381 z" id="path3884" style="fill:#e6eaf0;fill-opacity:1;fill-rule:nonzero;stroke:none"/>
      </clipPath>
      <clipPath clipPathUnits="userSpaceOnUse" id="clipPath4022">
         <path d="m 160.04545,1013.9077 c 0,25.1038 -20.35069,45.4545 -45.45454,45.4545 -25.103853,0 -45.454546,-20.3507 -45.454546,-45.4545 0,-25.10392 20.350693,-45.45461 45.454546,-45.45461 25.10385,0 45.45454,20.35069 45.45454,45.45461 z" id="path4024" style="fill:#e6eaf0;fill-opacity:1;fill-rule:nonzero;stroke:none"/>
      </clipPath>
      <clipPath clipPathUnits="userSpaceOnUse" id="clipPath4292">
         <path d="m 90,1002.3622 c 0,22.0914 -17.90861,40 -40,40 -22.09139,0 -40,-17.9086 -40,-40 0,-22.09143 17.90861,-40.00004 40,-40.00004 22.09139,0 40,17.90861 40,40.00004 z" id="path4294" style="fill:#e6eaf0;fill-opacity:1;fill-rule:nonzero;stroke:none"/>
      </clipPath>
      <clipPath clipPathUnits="userSpaceOnUse" id="clipPath4381">
         <path d="m 72.500001,997.86218 c 0,12.42642 -10.073593,22.50002 -22.500001,22.50002 -12.426408,0 -22.500001,-10.0736 -22.500001,-22.50002 0,-12.42641 10.073593,-22.5 22.500001,-22.5 12.426408,0 22.500001,10.07359 22.500001,22.5 z" id="path4383" style="fill:#cae8ff;fill-opacity:1;fill-rule:nonzero;stroke:none"/>
      </clipPath>
      <clipPath clipPathUnits="userSpaceOnUse" id="clipPath4385">
         <path d="m 72.500001,997.86218 c 0,12.42642 -10.073593,22.50002 -22.500001,22.50002 -12.426408,0 -22.500001,-10.0736 -22.500001,-22.50002 0,-12.42641 10.073593,-22.5 22.500001,-22.5 12.426408,0 22.500001,10.07359 22.500001,22.5 z" id="path4387" style="fill:#cae8ff;fill-opacity:1;fill-rule:nonzero;stroke:none"/>
      </clipPath>
      <clipPath clipPathUnits="userSpaceOnUse" id="clipPath4389">
         <path d="M 72.500001,45.5 C 72.500001,57.92642 62.426408,68.00002 50,68.00002 37.573592,68.00002 27.499999,57.92642 27.499999,45.5 27.499999,33.07359 37.573592,23 50,23 62.426408,23 72.500001,33.07359 72.500001,45.5 z" id="path4391" style="fill:#cae8ff;fill-opacity:1;fill-rule:nonzero;stroke:none"/>
      </clipPath>
      <clipPath clipPathUnits="userSpaceOnUse" id="clipPath4427">
         <path d="m 90,1002.3622 c 0,22.0914 -17.90861,40 -40,40 -22.09139,0 -40,-17.9086 -40,-40 0,-22.09143 17.90861,-40.00004 40,-40.00004 22.09139,0 40,17.90861 40,40.00004 z" id="path4429" style="fill:#e6eaf0;fill-opacity:1;fill-rule:nonzero;stroke:none"/>
      </clipPath>
      <clipPath clipPathUnits="userSpaceOnUse" id="clipPath4431">
         <path d="m 90,1002.3622 c 0,22.0914 -17.90861,40 -40,40 -22.09139,0 -40,-17.9086 -40,-40 0,-22.09143 17.90861,-40.00004 40,-40.00004 22.09139,0 40,17.90861 40,40.00004 z" id="path4433" style="fill:#e6eaf0;fill-opacity:1;fill-rule:nonzero;stroke:none"/>
      </clipPath>
      <clipPath clipPathUnits="userSpaceOnUse" id="clipPath4435">
         <path d="m 90,50.00002 c 0,22.0914 -17.90861,40 -40,40 -22.09139,0 -40,-17.9086 -40,-40 0,-22.09143 17.90861,-40.00004 40,-40.00004 22.09139,0 40,17.90861 40,40.00004 z" id="path4437" style="fill:#e6eaf0;fill-opacity:1;fill-rule:nonzero;stroke:none"/>
      </clipPath>
      <clipPath clipPathUnits="userSpaceOnUse" id="clipPath4439">
         <path d="m 90,1002.3622 c 0,22.0914 -17.90861,40 -40,40 -22.09139,0 -40,-17.9086 -40,-40 0,-22.09143 17.90861,-40.00004 40,-40.00004 22.09139,0 40,17.90861 40,40.00004 z" id="path4441" style="fill:#e6eaf0;fill-opacity:1;fill-rule:nonzero;stroke:none"/>
      </clipPath>
      <clipPath clipPathUnits="userSpaceOnUse" id="clipPath4443">
         <path d="m 90,1002.3622 c 0,22.0914 -17.90861,40 -40,40 -22.09139,0 -40,-17.9086 -40,-40 0,-22.09143 17.90861,-40.00004 40,-40.00004 22.09139,0 40,17.90861 40,40.00004 z" id="path4445" style="fill:#e6eaf0;fill-opacity:1;fill-rule:nonzero;stroke:none"/>
      </clipPath>
      <clipPath clipPathUnits="userSpaceOnUse" id="clipPath4567">
         <path d="m 90,1002.3622 c 0,22.0914 -17.90861,40 -40,40 -22.09139,0 -40,-17.9086 -40,-40 0,-22.09143 17.90861,-40.00004 40,-40.00004 22.09139,0 40,17.90861 40,40.00004 z" id="path4569" style="fill:#e6eaf0;fill-opacity:1;fill-rule:nonzero;stroke:none"/>
      </clipPath>
      <clipPath clipPathUnits="userSpaceOnUse" id="clipPath4571">
         <path d="m 90,1002.3622 c 0,22.0914 -17.90861,40 -40,40 -22.09139,0 -40,-17.9086 -40,-40 0,-22.09143 17.90861,-40.00004 40,-40.00004 22.09139,0 40,17.90861 40,40.00004 z" id="path4573" style="fill:#e6eaf0;fill-opacity:1;fill-rule:nonzero;stroke:none"/>
      </clipPath>
      <clipPath clipPathUnits="userSpaceOnUse" id="clipPath4575">
         <path d="m 90,1002.3622 c 0,22.0914 -17.90861,40 -40,40 -22.09139,0 -40,-17.9086 -40,-40 0,-22.09143 17.90861,-40.00004 40,-40.00004 22.09139,0 40,17.90861 40,40.00004 z" id="path4577" style="fill:#e6eaf0;fill-opacity:1;fill-rule:nonzero;stroke:none"/>
      </clipPath>
      <clipPath clipPathUnits="userSpaceOnUse" id="clipPath4579">
         <path d="m 90,50.00002 c 0,22.0914 -17.90861,40 -40,40 -22.09139,0 -40,-17.9086 -40,-40 0,-22.09143 17.90861,-40.00004 40,-40.00004 22.09139,0 40,17.90861 40,40.00004 z" id="path4581" style="fill:#e6eaf0;fill-opacity:1;fill-rule:nonzero;stroke:none"/>
      </clipPath>
      <clipPath clipPathUnits="userSpaceOnUse" id="clipPath4622">
         <path d="m 90,1002.3622 c 0,22.0914 -17.90861,40 -40,40 -22.09139,0 -40,-17.9086 -40,-40 0,-22.09143 17.90861,-40.00004 40,-40.00004 22.09139,0 40,17.90861 40,40.00004 z" id="path4624" style="fill:#e6eaf0;fill-opacity:1;fill-rule:nonzero;stroke:none"/>
      </clipPath>
   </defs>
   <g id="layer1" transform="translate(0,-952.36218)">
      <g id="g7705" transform="translate(0,-3.5)">
         <path d="m 15,1027.3622 0,-46.00004 c 0,-2 0,-2 2,-2 l 66,0 c 2,0 2,0 2,2 l 0,46.00004 z" id="path7687" style="color:#000000;fill:#ffffff;stroke:#007161;stroke-width:1.50000000000000000;stroke-linecap:butt;stroke-linejoin:miter;stroke-miterlimit:4;stroke-opacity:1;stroke-dasharray:none;stroke-dashoffset:0;marker:none;visibility:visible;display:inline;overflow:visible;enable-background:accumulate;fill-opacity:1"/>
         <path d="m 18,70 59,-2 2,-36 3,0 0,40 -64,0 z" id="path7699" style="color:#000000;fill:#dee9ff;fill-opacity:1;stroke:none;stroke-width:1px;marker:none;visibility:visible;display:inline;overflow:visible;enable-background:accumulate" transform="translate(0,952.36218)"/>
         <path d="m 10,1027.3622 c 0,3 0,5 5,5 l 70,0 c 5,0 5,-2 5,-5 z" id="path7685" style="color:#000000;fill:#ffffff;stroke:#007161;stroke-width:1.50000000000000000;stroke-linecap:butt;stroke-linejoin:round;stroke-miterlimit:4;stroke-opacity:1;stroke-dasharray:none;stroke-dashoffset:0;marker:none;visibility:visible;display:inline;overflow:visible;enable-background:accumulate;fill-opacity:1"/>
         <path d="m 18,1024.3622 64,0 0,-40.00004 -64,0 z" id="path7689" style="color:#000000;fill:none;stroke:#007161;stroke-width:1;stroke-linecap:butt;stroke-linejoin:miter;stroke-miterlimit:4;stroke-opacity:1;stroke-dasharray:none;stroke-dashoffset:0;marker:none;visibility:visible;display:inline;overflow:visible;enable-background:accumulate"/>
         <path d="m 50.5,982.05282 c 0,0.27614 -0.223858,0.5 -0.5,0.5 -0.276142,0 -0.5,-0.22386 -0.5,-0.5 0,-0.27614 0.223858,-0.5 0.5,-0.5 0.276142,0 0.5,0.22386 0.5,0.5 z" id="path7696" style="fill:#dee9ff;fill-opacity:1;fill-rule:nonzero;stroke:#007161;stroke-width:1.5;stroke-linecap:round;stroke-linejoin:round;stroke-miterlimit:4;stroke-opacity:1;stroke-dashoffset:0"/>
         <path d="m 15.740939,73.407516 0.0026,0.846812 68.502589,0.0035 0.0039,-45.265625 c -0.0052,-0.531429 0.0061,-1.150053 -0.0586,-1.195312 -0.166848,-0.02829 -0.394471,-0.05735 -0.6875,-0.04687 l -0.0039,45.65625 -67.700583,0" id="path7701" style="color:#000000;fill:#dee9ff;fill-opacity:1;stroke:none;stroke-width:1px;marker:none;visibility:visible;display:inline;overflow:visible;enable-background:accumulate" transform="translate(0,952.36218)"/>
         <path d="M 14.020602,79.206641 C 12.81146,78.978706 11.999034,78.184592 12.009767,76.742816 l 77.229989,-0.740252 0.01038,-0.254117 -78.496228,-0.01021 c -0.01527,2.416941 0.523856,3.379063 3.266693,3.468404 z" id="path7703" style="color:#000000;fill:#dee9ff;fill-opacity:1;stroke:none;stroke-width:1px;marker:none;visibility:visible;display:inline;overflow:visible;enable-background:accumulate" transform="translate(0,952.36218)"/>
         <path d="m 42,1027.3622 1,2 15,0 1,-2" id="path7691" style="color:#000000;fill:none;stroke:#007161;stroke-width:1;stroke-linecap:butt;stroke-linejoin:miter;stroke-miterlimit:4;stroke-opacity:1;stroke-dasharray:none;stroke-dashoffset:0;marker:none;visibility:visible;display:inline;overflow:visible;enable-background:accumulate"/>
      </g>
      <path d="m 18,985.36218 64,0" id="path7797" style="color:#000000;fill:none;stroke:#007161;stroke-width:1;stroke-linecap:butt;stroke-linejoin:miter;stroke-miterlimit:4;stroke-opacity:1;stroke-dasharray:none;stroke-dashoffset:0;marker:none;visibility:visible;display:inline;overflow:visible;enable-background:accumulate"/>
      <path d="m 21.53125,983.11218 c 0,0.27614 -0.223858,0.5 -0.5,0.5 -0.276142,0 -0.5,-0.22386 -0.5,-0.5 0,-0.27614 0.223858,-0.5 0.5,-0.5 0.276142,0 0.5,0.22386 0.5,0.5 z" id="path7799" style="fill:#5c9ad1;fill-opacity:1;fill-rule:nonzero;stroke:#007161;stroke-width:0.5;stroke-linecap:round;stroke-linejoin:round;stroke-miterlimit:4;stroke-opacity:1;stroke-dashoffset:0"/>
      <path d="m 23.53125,983.11218 c 0,0.27614 -0.223858,0.5 -0.5,0.5 -0.276142,0 -0.5,-0.22386 -0.5,-0.5 0,-0.27614 0.223858,-0.5 0.5,-0.5 0.276142,0 0.5,0.22386 0.5,0.5 z" id="path7802" style="fill:#5c9ad1;fill-opacity:1;fill-rule:nonzero;stroke:#007161;stroke-width:0.5;stroke-linecap:round;stroke-linejoin:round;stroke-miterlimit:4;stroke-opacity:1;stroke-dashoffset:0"/>
      <path d="m 25.503906,983.1239 c 0,0.27614 -0.223858,0.5 -0.5,0.5 -0.276142,0 -0.5,-0.22386 -0.5,-0.5 0,-0.27614 0.223858,-0.5 0.5,-0.5 0.276142,0 0.5,0.22386 0.5,0.5 z" id="path7804" style="fill:#5c9ad1;fill-opacity:1;fill-rule:nonzero;stroke:#007161;stroke-width:0.5;stroke-linecap:round;stroke-linejoin:round;stroke-miterlimit:4;stroke-opacity:1;stroke-dashoffset:0"/>
      <path d="m 35,33 0,35" id="path7838" style="color:#000000;fill:none;stroke:#007161;stroke-width:1px;stroke-linecap:butt;stroke-linejoin:miter;stroke-miterlimit:4;stroke-opacity:1;stroke-dasharray:none;stroke-dashoffset:0;marker:none;visibility:visible;display:inline;overflow:visible;enable-background:accumulate" transform="translate(0,952.36218)"/>
      <path d="m 20,36 6,0" id="path7840" style="color:#000000;fill:none;stroke:#007161;stroke-width:1px;stroke-linecap:butt;stroke-linejoin:miter;stroke-miterlimit:4;stroke-opacity:1;stroke-dasharray:none;stroke-dashoffset:0;marker:none;visibility:visible;display:inline;overflow:visible;enable-background:accumulate" transform="translate(0,952.36218)"/>
      <path d="m 27,36 6,0" id="path7842" style="color:#000000;fill:none;stroke:#007161;stroke-width:1px;stroke-linecap:butt;stroke-linejoin:miter;stroke-miterlimit:4;stroke-opacity:1;stroke-dasharray:none;stroke-dashoffset:0;marker:none;visibility:visible;display:inline;overflow:visible;enable-background:accumulate" transform="translate(0,952.36218)"/>
      <path d="m 33,991.36218 -8,0" id="path7844" style="color:#000000;fill:none;stroke:#007161;stroke-width:1px;stroke-linecap:butt;stroke-linejoin:miter;stroke-miterlimit:4;stroke-opacity:1;stroke-dasharray:none;stroke-dashoffset:0;marker:none;visibility:visible;display:inline;overflow:visible;enable-background:accumulate"/>
      <path d="m 20,42 6,0" id="path7848" style="color:#000000;fill:none;stroke:#007161;stroke-width:1px;stroke-linecap:butt;stroke-linejoin:miter;stroke-miterlimit:4;stroke-opacity:1;stroke-dasharray:none;stroke-dashoffset:0;marker:none;visibility:visible;display:inline;overflow:visible;enable-background:accumulate" transform="translate(0,952.36218)"/>
      <path d="m 27,42 3,0" id="path7850" style="color:#000000;fill:none;stroke:#007161;stroke-width:1px;stroke-linecap:butt;stroke-linejoin:miter;stroke-miterlimit:4;stroke-opacity:1;stroke-dasharray:none;stroke-dashoffset:0;marker:none;visibility:visible;display:inline;overflow:visible;enable-background:accumulate" transform="translate(0,952.36218)"/>
      <path d="m 31,42 2,0" id="path7852" style="color:#000000;fill:none;stroke:#007161;stroke-width:1px;stroke-linecap:butt;stroke-linejoin:miter;stroke-miterlimit:4;stroke-opacity:1;stroke-dasharray:none;stroke-dashoffset:0;marker:none;visibility:visible;display:inline;overflow:visible;enable-background:accumulate" transform="translate(0,952.36218)"/>
      <path d="m 33,45 -5,0" id="path7854" style="color:#000000;fill:none;stroke:#007161;stroke-width:1px;stroke-linecap:butt;stroke-linejoin:miter;stroke-miterlimit:4;stroke-opacity:1;stroke-dasharray:none;stroke-dashoffset:0;marker:none;visibility:visible;display:inline;overflow:visible;enable-background:accumulate" transform="translate(0,952.36218)"/>
      <path d="m 27,45 -3,0" id="path7856" style="color:#000000;fill:none;stroke:#007161;stroke-width:1px;stroke-linecap:butt;stroke-linejoin:miter;stroke-miterlimit:4;stroke-opacity:1;stroke-dasharray:none;stroke-dashoffset:0;marker:none;visibility:visible;display:inline;overflow:visible;enable-background:accumulate" transform="translate(0,952.36218)"/>
      <path d="m 20,48 6,0" id="path7860" style="color:#000000;fill:none;stroke:#007161;stroke-width:1px;stroke-linecap:butt;stroke-linejoin:miter;stroke-miterlimit:4;stroke-opacity:1;stroke-dasharray:none;stroke-dashoffset:0;marker:none;visibility:visible;display:inline;overflow:visible;enable-background:accumulate" transform="translate(0,952.36218)"/>
      <path d="m 20,51 8,0" id="path7862" style="color:#000000;fill:none;stroke:#007161;stroke-width:1px;stroke-linecap:butt;stroke-linejoin:miter;stroke-miterlimit:4;stroke-opacity:1;stroke-dasharray:none;stroke-dashoffset:0;marker:none;visibility:visible;display:inline;overflow:visible;enable-background:accumulate" transform="translate(0,952.36218)"/>
      <path d="m 26,1006.3622 -6,0" id="path7866" style="color:#000000;fill:none;stroke:#007161;stroke-width:1px;stroke-linecap:butt;stroke-linejoin:miter;stroke-miterlimit:4;stroke-opacity:1;stroke-dasharray:none;stroke-dashoffset:0;marker:none;visibility:visible;display:inline;overflow:visible;enable-background:accumulate"/>
      <path d="m 20,1009.3622 9,0" id="path7868" style="color:#000000;fill:none;stroke:#007161;stroke-width:1px;stroke-linecap:butt;stroke-linejoin:miter;stroke-miterlimit:4;stroke-opacity:1;stroke-dasharray:none;stroke-dashoffset:0;marker:none;visibility:visible;display:inline;overflow:visible;enable-background:accumulate"/>
      <path d="m 30,1009.3622 3,0" id="path7870" style="color:#000000;fill:none;stroke:#007161;stroke-width:1px;stroke-linecap:butt;stroke-linejoin:miter;stroke-miterlimit:4;stroke-opacity:1;stroke-dasharray:none;stroke-dashoffset:0;marker:none;visibility:visible;display:inline;overflow:visible;enable-background:accumulate"/>
      <path d="m 33,1012.3622 -6,0" id="path7872" style="color:#000000;fill:none;stroke:#007161;stroke-width:1px;stroke-linecap:butt;stroke-linejoin:miter;stroke-miterlimit:4;stroke-opacity:1;stroke-dasharray:none;stroke-dashoffset:0;marker:none;visibility:visible;display:inline;overflow:visible;enable-background:accumulate"/>
      <path d="m 26,1012.3622 -4,0" id="path7874" style="color:#000000;fill:none;stroke:#007161;stroke-width:1px;stroke-linecap:butt;stroke-linejoin:miter;stroke-miterlimit:4;stroke-opacity:1;stroke-dasharray:none;stroke-dashoffset:0;marker:none;visibility:visible;display:inline;overflow:visible;enable-background:accumulate"/>
      <path d="m 20,1015.3622 5,0" id="path7878" style="color:#000000;fill:none;stroke:#007161;stroke-width:1px;stroke-linecap:butt;stroke-linejoin:miter;stroke-miterlimit:4;stroke-opacity:1;stroke-dasharray:none;stroke-dashoffset:0;marker:none;visibility:visible;display:inline;overflow:visible;enable-background:accumulate"/>
      <path d="m 26,1015.3622 4,0" id="path7880" style="color:#000000;fill:none;stroke:#007161;stroke-width:1px;stroke-linecap:butt;stroke-linejoin:miter;stroke-miterlimit:4;stroke-opacity:1;stroke-dasharray:none;stroke-dashoffset:0;marker:none;visibility:visible;display:inline;overflow:visible;enable-background:accumulate"/>
      <path d="m 38,38 c 0,-2 0,-2 2,-2 l 10,0 c 2,0 2,0 2,2 l 0,3 c 0,2 0,2 -2,2 l -10,0 c -2,0 -2,0 -2,-2 z" id="path7884" style="color:#000000;fill:none;stroke:#007161;stroke-width:1px;stroke-linecap:butt;stroke-linejoin:miter;stroke-miterlimit:4;stroke-opacity:1;stroke-dasharray:none;stroke-dashoffset:0;marker:none;visibility:visible;display:inline;overflow:visible;enable-background:accumulate" transform="translate(0,952.36218)"/>
      <path d="m 55,990.36218 c 0,-2 0,-2 2,-2 l 18,0 c 2,0 2,0 2,2 l 0,22.00002 c 0,2 0,2 -2,2 l -18,0 c -2,0 -2,0 -2,-2 z" id="path7886" style="color:#000000;fill:none;stroke:#007161;stroke-width:1px;stroke-linecap:butt;stroke-linejoin:miter;stroke-miterlimit:4;stroke-opacity:1;stroke-dasharray:none;stroke-dashoffset:0;marker:none;visibility:visible;display:inline;overflow:visible;enable-background:accumulate"/>
      <path d="m 58,1001.3622 c 0,-2.00002 0,-2.00002 2,-2.00002 l 12,0 c 2,0 2,0 2,2.00002 l 0,0 c 0,2 0,2 -2,2 l -12,0 c -2,0 -2,0 -2,-2 z" id="path7888" style="color:#000000;fill:none;stroke:#007161;stroke-width:1px;stroke-linecap:butt;stroke-linejoin:miter;stroke-miterlimit:4;stroke-opacity:1;stroke-dasharray:none;stroke-dashoffset:0;marker:none;visibility:visible;display:inline;overflow:visible;enable-background:accumulate"/>
      <path d="m 58,1009.3622 c 0,-2 0,-2 2,-2 l 12,0 c 2,0 2,0 2,2 l 0,0 c 0,2 0,2 -2,2 l -12,0 c -2,0 -2,0 -2,-2 z" id="path7890" style="color:#000000;fill:none;stroke:#007161;stroke-width:1px;stroke-linecap:butt;stroke-linejoin:miter;stroke-miterlimit:4;stroke-opacity:1;stroke-dasharray:none;stroke-dashoffset:0;marker:none;visibility:visible;display:inline;overflow:visible;enable-background:accumulate"/>
      <path d="m 58,1005.3622 10,0" id="path7892" style="color:#000000;fill:none;stroke:#007161;stroke-width:1px;stroke-linecap:butt;stroke-linejoin:miter;stroke-miterlimit:4;stroke-opacity:1;stroke-dasharray:none;stroke-dashoffset:0;marker:none;visibility:visible;display:inline;overflow:visible;enable-background:accumulate"/>
      <path d="m 58,997.36218 6,0" id="path7894" style="color:#000000;fill:none;stroke:#007161;stroke-width:1px;stroke-linecap:butt;stroke-linejoin:miter;stroke-miterlimit:4;stroke-opacity:1;stroke-dasharray:none;stroke-dashoffset:0;marker:none;visibility:visible;display:inline;overflow:visible;enable-background:accumulate"/>
      <path d="m 65,997.36218 3,0" id="path7896" style="color:#000000;fill:none;stroke:#007161;stroke-width:1px;stroke-linecap:butt;stroke-linejoin:miter;stroke-miterlimit:4;stroke-opacity:1;stroke-dasharray:none;stroke-dashoffset:0;marker:none;visibility:visible;display:inline;overflow:visible;enable-background:accumulate"/>
      <path d="m 58,43 12,0" id="path7898" style="color:#000000;fill:none;stroke:#007161;stroke-width:1px;stroke-linecap:butt;stroke-linejoin:miter;stroke-miterlimit:4;stroke-opacity:1;stroke-dasharray:none;stroke-dashoffset:0;marker:none;visibility:visible;display:inline;overflow:visible;enable-background:accumulate" transform="translate(0,952.36218)"/>
      <path d="m 58,41 4,0" id="path7902" style="color:#000000;fill:none;stroke:#007161;stroke-width:1px;stroke-linecap:butt;stroke-linejoin:miter;stroke-miterlimit:4;stroke-opacity:1;stroke-dasharray:none;stroke-dashoffset:0;marker:none;visibility:visible;display:inline;overflow:visible;enable-background:accumulate" transform="translate(0,952.36218)"/>
      <path d="m 63,41 5,0" id="path7904" style="color:#000000;fill:none;stroke:#007161;stroke-width:1px;stroke-linecap:butt;stroke-linejoin:miter;stroke-miterlimit:4;stroke-opacity:1;stroke-dasharray:none;stroke-dashoffset:0;marker:none;visibility:visible;display:inline;overflow:visible;enable-background:accumulate" transform="translate(0,952.36218)"/>
      <path d="m 58,39 6,0" id="path7906" style="color:#000000;fill:none;stroke:#007161;stroke-width:1px;stroke-linecap:butt;stroke-linejoin:miter;stroke-miterlimit:4;stroke-opacity:1;stroke-dasharray:none;stroke-dashoffset:0;marker:none;visibility:visible;display:inline;overflow:visible;enable-background:accumulate" transform="translate(0,952.36218)"/>
      <path d="m 38,1000.3622 c 0,-2.00004 0,-2.00004 2,-2.00004 l 10,0 c 2,0 2,0 2,2.00004 l 0,2 c 0,2 0,2 -2,2 l -10,0 c -2,0 -2,0 -2,-2 z" id="path7908" style="color:#000000;fill:none;stroke:#007161;stroke-width:1px;stroke-linecap:butt;stroke-linejoin:miter;stroke-miterlimit:4;stroke-opacity:1;stroke-dasharray:none;stroke-dashoffset:0;marker:none;visibility:visible;display:inline;overflow:visible;enable-background:accumulate"/>
      <path d="m 38,1009.3622 c 0,-2 0,-2 2,-2 l 10,0 c 2,0 2,0 2,2 l 0,3 c 0,2 0,2 -2,2 l -10,0 c -2,0 -2,0 -2,-2 z" id="path7910" style="color:#000000;fill:none;stroke:#007161;stroke-width:1px;stroke-linecap:butt;stroke-linejoin:miter;stroke-miterlimit:4;stroke-opacity:1;stroke-dasharray:none;stroke-dashoffset:0;marker:none;visibility:visible;display:inline;overflow:visible;enable-background:accumulate"/>
   </g>
</svg>
