<?xml version="1.0" encoding="UTF-8" standalone="no"?>
<!DOCTYPE svg PUBLIC "-//W3C//DTD SVG 1.1//EN" "http://www.w3.org/Graphics/SVG/1.1/DTD/svg11.dtd">
<svg width="100%" height="100%" viewBox="0 0 1472 1367" version="1.1" xmlns="http://www.w3.org/2000/svg" xmlns:xlink="http://www.w3.org/1999/xlink" xml:space="preserve">
  <defs>
    <style>#layer{fill:#ffffff;fill-rule:nonzero}</style>
  </defs>
  <g id="layer" transform="matrix(4.16667,0,0,4.16667,-926.342,-577.612)">
    <path d="M438.898,319.959C438.898,339.635 422.945,355.59 403.267,355.59C383.591,355.59 367.638,339.635 367.638,319.959C367.638,300.281 383.591,284.326 403.267,284.326C422.945,284.326 438.898,300.281 438.898,319.959" />
    <path d="M234.476,342.37C234.166,320.806 268.994,299.701 323.159,286.055C329.044,273.23 333.886,263.643 337.492,256.895C265.376,274.5 219.442,310.856 222.463,340.433C224.995,365.165 247.688,381.793 293.639,381.352L294.14,378.41C252.085,376.581 234.761,361.952 234.476,342.37" />
    <path d="M435.881,243.004C426.271,235.339 416.752,228.447 407.399,222.316C403.587,226.733 398.755,233.455 397.37,235.4C401.494,237.988 405.618,240.706 409.724,243.54C415.546,243.389 426.024,243.139 435.881,243.004" />
    <path d="M473.391,275.758C468.135,275.32 458.577,274.679 449.255,274.864C512.626,330.281 544.413,379.665 530.302,399.127C513.25,422.65 460.952,411.328 440.714,401.113L439.151,403.834C455.031,412.068 511.057,432.26 532.652,404.42C554.588,376.153 525.965,326.135 473.391,275.758" />
    <path d="M575.183,300.456C569.129,263.824 494.611,239.727 395.827,247.626C393.227,247.836 390.658,248.072 388.099,248.326C381.945,257.725 375.597,269.213 371.616,276.674C378.855,275.644 386.284,274.731 393.884,273.954C486.529,264.487 556.225,282.257 559.751,306.341C561.246,316.567 548.709,327.565 528.378,337.946C529.417,339.629 530.887,342.102 532.098,344.483C560.374,331.437 577.799,316.293 575.183,300.456" />
    <path d="M512.721,345.191C473.298,361.858 416.35,375.885 370.651,380.817L370.651,383.513C421.698,378.297 476.417,366.547 516.441,351.079C515.482,349.518 514.172,347.415 512.721,345.191" />
    <path d="M344.565,449.946C319.541,437.785 322.414,362.817 366.216,278.983C410.013,195.149 472.352,152.206 489.5,160.741C501.686,166.804 499.812,203.025 488.438,246.601C490.452,246.841 493.169,247.182 495.404,247.543C512.429,194.84 514.266,152.881 491.822,141.968C457.169,125.123 386.84,172.883 337.569,264.618C287.136,358.514 293.871,446.444 328.523,463.29C351.727,474.567 387.328,458.649 427.984,387.085L425.298,385.494C383.971,447.465 360.753,457.813 344.565,449.946" />
    <path d="M482.606,282.34C483.396,280.406 484.175,278.476 484.936,276.558C483.579,276.209 481.753,275.825 479.783,275.639C479.443,276.654 479.093,277.673 478.748,278.691C480.216,279.875 481.6,281.264 482.606,282.34" />
    <path d="M471.642,298.105C466.27,311.868 460.197,325.512 453.544,338.429L455.634,339.763C462.514,326.749 468.876,313.719 474.634,300.9C473.663,299.837 472.496,298.811 471.642,298.105" />
    <path d="M304.21,294.586C307.322,297.36 310.601,300.179 314.062,303.053L315.742,300.013C313.113,297.737 310.567,295.45 308.105,293.153C306.923,293.549 305.522,294.045 304.21,294.586" />
    <path d="M264.4,197.19C251.081,213.724 252.369,238.737 282.079,272.547C283.454,271.974 285.415,271.163 286.868,270.579C265.859,244.607 257.829,219.782 270.176,203.732C280.412,190.428 319.114,195.704 363.504,216.767C366.616,212.614 370.751,207.193 373.879,203.106C322.407,177.906 280.259,177.499 264.4,197.19" />
  </g>
</svg>
